<?xml version="1.0" encoding="UTF-8"?><svg xmlns="http://www.w3.org/2000/svg" viewBox="0 0 86.74 36.37"><defs><style>.d{fill:#951b1f;}.e{fill:#231f20;}</style></defs><g id="a"/><g id="b"><g id="c"><g><g><path d="M86.14,.59h-15.5c-9.78,1.8-13.35,6.83-13.35,14.26,.48,8.02,4.3,12.62,11.42,14.74h17.23c-1.13-2.56-2.26-5.12-3.39-7.68h-11.21c-3.55-.89-6.15-2.82-6.3-7.47,.38-4.45,2.77-5.96,6.58-6.44h10.24c1.43-2.47,2.86-4.93,4.29-7.4h0Z"/><path class="d" d="M57.98,.44l-4.99,7.53h-9.73c-4.14,1.97-5.33,5.15-4.73,9.05,.89,3.12,2.75,5.36,6.21,6.16h8.52c-.33-1.28-.66-2.56-1-3.84h-4.68c-.65-2.16-1.3-4.33-1.95-6.49h9.54c-.24,6.46,1.4,12.35,8.22,16.64h-20.27c-3.7-6.95-7.4-13.91-11.1-20.87,2.66-4.68,6.76-7.15,11.86-8.07,4.71-.03,9.42-.06,14.13-.1h0Z"/><path d="M43.39,29.5c-.09,.01-.16,.03-.22,.03-1.98,.03-3.96,.06-5.94,.06-.76,0-1.51-.08-2.27-.13-.5-.03-.92-.25-1.31-.55-.56-.42-1-.94-1.34-1.55-.95-1.71-1.94-3.41-2.85-5.15-1.44-2.72-2.83-5.47-4.25-8.21-.45-.87-.93-1.73-1.42-2.58-.22-.39-.49-.75-.76-1.1-.18-.23-.39-.44-.62-.61-.44-.34-.88-.34-1.34-.03-.13,.09-.25,.18-.35,.3-.25,.29-.51,.57-.71,.88-.42,.67-.85,1.34-1.21,2.04-1.08,2.06-2.12,4.14-3.19,6.19-1.37,2.62-2.77,5.23-4.15,7.85-.05,.09-.1,.18-.15,.27-.67,1.25-1.73,1.98-3.09,2.29-.61,.14-1.22,.22-1.84,.21-.84,0-1.69-.02-2.53-.08-1.08-.07-2.16-.18-3.25-.13-.1,0-.2,0-.3-.01-.04-.21,.09-.34,.16-.49,1.44-2.9,2.87-5.8,4.31-8.69,1.72-3.45,3.47-6.89,5.35-10.25,1.37-2.45,2.82-4.85,4.35-7.2,.49-.76,1.14-1.33,1.93-1.75,.67-.36,1.38-.6,2.12-.78C19.48,.1,20.49-.01,21.51,0c1.68,.02,3.26,.46,4.74,1.26,1.67,.91,2.99,2.19,4.08,3.73,.63,.89,1.17,1.83,1.59,2.83,1.62,3.84,3.56,7.53,5.6,11.16,1.8,3.2,3.6,6.39,5.4,9.58,.14,.24,.26,.48,.39,.73,.03,.06,.04,.12,.07,.21Z"/><path class="d" d="M21.69,29.23c-1.27,0-2.55,0-3.82,0-.15,0-.31,0-.46,0-.73-.01-1.37-.85-1.08-1.64,.04-.1,.08-.19,.13-.28,1.03-1.95,2.05-3.9,3.09-5.84,.28-.53,.6-1.04,.93-1.55,.18-.27,.39-.53,.63-.75,.43-.4,.79-.39,1.23,.01,.18,.16,.34,.34,.48,.54,.26,.38,.53,.77,.75,1.17,.77,1.42,1.52,2.85,2.28,4.28,.35,.65,.69,1.31,1.04,1.96,.06,.12,.13,.24,.19,.37,.36,.81-.3,1.71-1.08,1.71-.15,0-.31,0-.46,0-1.27,0-2.55,0-3.82,0Z"/></g><g><path class="e" d="M0,36.3l1.68-3.78h.86l1.69,3.78h-.92l-1.39-3.33h.35l-1.39,3.33H0Zm.85-.81l.22-.66h1.95l.23,.66H.85Z"/><path class="e" d="M5.88,36.37c-.3,0-.59-.04-.87-.12-.28-.08-.5-.19-.67-.32l.3-.66c.16,.12,.35,.21,.57,.28,.22,.07,.45,.11,.67,.11,.17,0,.31-.02,.42-.05,.11-.04,.18-.08,.23-.14,.05-.06,.08-.13,.08-.21,0-.1-.04-.18-.12-.24-.08-.06-.18-.11-.32-.15-.13-.04-.27-.07-.43-.11-.16-.03-.31-.08-.47-.12-.16-.05-.3-.11-.43-.19-.13-.08-.24-.19-.31-.32-.08-.13-.12-.3-.12-.49,0-.22,.06-.41,.17-.59,.12-.18,.29-.32,.53-.43,.24-.11,.53-.16,.89-.16,.24,0,.47,.03,.7,.09s.43,.14,.61,.25l-.28,.66c-.17-.1-.34-.17-.52-.22s-.35-.07-.52-.07-.31,.02-.42,.06c-.1,.04-.18,.09-.23,.15-.05,.06-.07,.14-.07,.22,0,.1,.04,.18,.12,.24s.18,.11,.31,.14c.13,.03,.27,.07,.43,.1,.16,.03,.31,.08,.47,.13,.16,.05,.3,.11,.43,.19,.13,.08,.23,.18,.32,.31s.12,.29,.12,.49c0,.21-.06,.41-.17,.58-.12,.18-.29,.32-.53,.43-.24,.11-.53,.16-.89,.16Z"/><path class="e" d="M8.94,35.6h2.06v.7h-2.92v-3.78h2.85v.7h-1.99v2.37Zm-.06-1.56h1.82v.69h-1.82v-.69Z"/><path class="e" d="M12.56,35.6h2.06v.7h-2.92v-3.78h2.85v.7h-1.99v2.37Zm-.06-1.56h1.82v.69h-1.82v-.69Z"/><path class="e" d="M15.31,36.3v-3.78h1.63c.34,0,.63,.05,.87,.16,.24,.11,.43,.27,.57,.47s.2,.45,.2,.73-.07,.53-.2,.73-.32,.36-.57,.46c-.25,.11-.54,.16-.87,.16h-1.16l.4-.38v1.44h-.88Zm.88-1.34l-.4-.42h1.11c.27,0,.47-.06,.6-.17s.21-.28,.21-.49-.07-.37-.21-.48-.34-.17-.6-.17h-1.11l.4-.42v2.14Zm1.53,1.34l-.95-1.37h.94l.95,1.37h-.94Z"/><path class="d" d="M22.63,36.37c-.3,0-.57-.05-.83-.14-.25-.1-.47-.23-.65-.41-.18-.18-.33-.38-.43-.62s-.15-.5-.15-.78,.05-.54,.15-.78,.25-.44,.43-.62c.19-.18,.41-.31,.66-.41s.53-.14,.83-.14c.33,0,.64,.06,.9,.17s.49,.27,.68,.49l-.56,.52c-.14-.15-.29-.26-.45-.33-.16-.07-.34-.11-.53-.11-.18,0-.34,.03-.5,.09-.15,.06-.28,.14-.39,.25-.11,.11-.19,.24-.25,.38s-.09,.31-.09,.49,.03,.33,.09,.48c.06,.15,.14,.28,.25,.39,.11,.11,.24,.19,.39,.25s.31,.09,.49,.09,.34-.03,.5-.09c.16-.06,.32-.15,.48-.29l.5,.63c-.21,.16-.45,.28-.72,.36s-.54,.12-.81,.12Zm.73-.59v-1.42h.8v1.53l-.8-.11Z"/><path class="d" d="M24.97,36.3v-3.78h1.63c.34,0,.63,.05,.87,.16,.24,.11,.43,.27,.57,.47s.2,.45,.2,.73-.07,.53-.2,.73-.32,.36-.57,.46c-.25,.11-.54,.16-.87,.16h-1.16l.4-.38v1.44h-.88Zm.88-1.34l-.4-.42h1.11c.27,0,.47-.06,.6-.17s.21-.28,.21-.49-.07-.37-.21-.48-.34-.17-.6-.17h-1.11l.4-.42v2.14Zm1.53,1.34l-.95-1.37h.94l.95,1.37h-.94Z"/><path class="d" d="M30.77,36.37c-.3,0-.57-.05-.83-.15s-.47-.23-.66-.41c-.19-.18-.33-.38-.43-.62-.1-.24-.15-.5-.15-.78s.05-.54,.15-.78c.1-.24,.25-.44,.43-.62,.19-.18,.41-.31,.66-.41s.52-.15,.82-.15,.57,.05,.82,.14,.47,.23,.66,.41c.19,.18,.33,.38,.43,.62s.15,.5,.15,.78-.05,.54-.15,.78-.25,.45-.43,.62c-.19,.18-.41,.31-.66,.41s-.52,.14-.82,.14Zm0-.74c.17,0,.32-.03,.47-.09,.14-.06,.27-.14,.37-.25,.11-.11,.19-.24,.25-.38,.06-.15,.09-.31,.09-.49s-.03-.34-.09-.49c-.06-.15-.14-.27-.25-.38-.11-.11-.23-.19-.37-.25-.14-.06-.3-.09-.47-.09s-.33,.03-.47,.09c-.14,.06-.27,.14-.38,.25s-.19,.24-.25,.38c-.06,.15-.09,.31-.09,.49s.03,.34,.09,.49c.06,.15,.14,.27,.25,.38s.23,.19,.38,.25c.14,.06,.3,.09,.47,.09Z"/><path class="d" d="M35.17,36.37c-.54,0-.96-.15-1.26-.45-.3-.3-.45-.73-.45-1.28v-2.11h.88v2.09c0,.36,.07,.61,.22,.77,.15,.16,.35,.24,.61,.24s.47-.08,.62-.24,.22-.42,.22-.77v-2.09h.86v2.11c0,.56-.15,.99-.45,1.28-.3,.3-.72,.45-1.25,.45Z"/><path class="d" d="M37.74,36.3v-3.78h1.63c.34,0,.63,.05,.87,.16,.24,.11,.43,.27,.57,.47s.2,.45,.2,.73-.07,.53-.2,.73-.32,.36-.57,.47c-.25,.11-.54,.17-.87,.17h-1.16l.4-.39v1.44h-.88Zm.88-1.34l-.4-.42h1.11c.27,0,.47-.06,.6-.17s.21-.28,.21-.49-.07-.37-.21-.48-.34-.17-.6-.17h-1.11l.4-.42v2.14Z"/><path class="d" d="M45.05,36.37c-.3,0-.57-.05-.83-.15s-.47-.23-.66-.41c-.19-.18-.33-.38-.43-.62-.1-.24-.15-.5-.15-.78s.05-.54,.15-.78c.1-.24,.25-.44,.43-.62,.19-.18,.41-.31,.66-.41s.52-.15,.82-.15,.57,.05,.82,.14,.47,.23,.66,.41c.19,.18,.33,.38,.43,.62s.15,.5,.15,.78-.05,.54-.15,.78-.25,.45-.43,.62c-.19,.18-.41,.31-.66,.41s-.52,.14-.82,.14Zm0-.74c.17,0,.32-.03,.47-.09,.14-.06,.27-.14,.37-.25,.11-.11,.19-.24,.25-.38,.06-.15,.09-.31,.09-.49s-.03-.34-.09-.49c-.06-.15-.14-.27-.25-.38-.11-.11-.23-.19-.37-.25-.14-.06-.3-.09-.47-.09s-.33,.03-.47,.09c-.14,.06-.27,.14-.38,.25s-.19,.24-.25,.38c-.06,.15-.09,.31-.09,.49s.03,.34,.09,.49c.06,.15,.14,.27,.25,.38s.23,.19,.38,.25c.14,.06,.3,.09,.47,.09Z"/><path class="d" d="M48.65,36.3h-.88v-3.78h2.85v.7h-1.97v3.08Zm-.07-2.08h1.81v.7h-1.81v-.7Z"/><path class="d" d="M54.55,36.37c-.29,0-.56-.05-.81-.14s-.47-.23-.65-.41c-.18-.18-.33-.38-.43-.62s-.15-.5-.15-.78,.05-.54,.15-.78,.25-.44,.43-.62c.19-.18,.4-.31,.65-.41s.52-.14,.81-.14c.33,0,.62,.06,.89,.17,.27,.11,.49,.28,.67,.5l-.57,.52c-.13-.15-.27-.26-.43-.33-.16-.08-.33-.11-.52-.11-.18,0-.34,.03-.49,.09-.15,.06-.28,.14-.38,.25-.11,.11-.19,.24-.25,.38s-.09,.31-.09,.49,.03,.34,.09,.49,.14,.28,.25,.38c.11,.11,.24,.19,.38,.25,.15,.06,.31,.09,.49,.09,.19,0,.36-.04,.52-.12,.16-.08,.3-.19,.43-.34l.57,.52c-.18,.22-.4,.39-.67,.5-.27,.12-.57,.17-.9,.17Z"/><path class="d" d="M58.45,36.37c-.3,0-.57-.05-.83-.15s-.47-.23-.66-.41c-.19-.18-.33-.38-.43-.62-.1-.24-.15-.5-.15-.78s.05-.54,.15-.78c.1-.24,.25-.44,.43-.62,.19-.18,.41-.31,.66-.41s.52-.15,.82-.15,.57,.05,.82,.14,.47,.23,.66,.41c.19,.18,.33,.38,.43,.62s.15,.5,.15,.78-.05,.54-.15,.78-.25,.45-.43,.62c-.19,.18-.41,.31-.66,.41s-.52,.14-.82,.14Zm0-.74c.17,0,.32-.03,.47-.09,.14-.06,.27-.14,.37-.25,.11-.11,.19-.24,.25-.38,.06-.15,.09-.31,.09-.49s-.03-.34-.09-.49c-.06-.15-.14-.27-.25-.38-.11-.11-.23-.19-.37-.25-.14-.06-.3-.09-.47-.09s-.33,.03-.47,.09c-.14,.06-.27,.14-.38,.25s-.19,.24-.25,.38c-.06,.15-.09,.31-.09,.49s.03,.34,.09,.49c.06,.15,.14,.27,.25,.38s.23,.19,.38,.25c.14,.06,.3,.09,.47,.09Z"/><path class="d" d="M61.17,36.3v-3.78h.72l1.61,2.67h-.38l1.58-2.67h.73v3.78h-.81v-2.52h.15l-1.27,2.11h-.39l-1.29-2.11h.18v2.52h-.81Z"/><path class="d" d="M66.31,36.3v-3.78h1.63c.34,0,.63,.05,.87,.16,.24,.11,.43,.27,.57,.47s.2,.45,.2,.73-.07,.53-.2,.73-.32,.36-.57,.47c-.25,.11-.54,.17-.87,.17h-1.16l.4-.39v1.44h-.88Zm.88-1.34l-.4-.42h1.11c.27,0,.47-.06,.6-.17s.21-.28,.21-.49-.07-.37-.21-.48-.34-.17-.6-.17h-1.11l.4-.42v2.14Z"/><path class="d" d="M69.52,36.3l1.68-3.78h.86l1.69,3.78h-.92l-1.39-3.33h.35l-1.39,3.33h-.9Zm.85-.81l.22-.66h1.95l.23,.66h-2.4Z"/><path class="d" d="M74.15,36.3v-3.78h.72l2.23,2.72h-.35v-2.72h.86v3.78h-.72l-2.23-2.72h.35v2.72h-.86Z"/><path class="d" d="M78.51,36.3v-3.78h.88v3.78h-.88Z"/><path class="d" d="M81.14,35.6h2.06v.7h-2.92v-3.78h2.85v.7h-1.99v2.37Zm-.06-1.56h1.82v.69h-1.82v-.69Z"/><path class="d" d="M85.14,36.37c-.3,0-.59-.04-.87-.12-.28-.08-.5-.19-.67-.32l.3-.66c.16,.12,.35,.21,.57,.28,.22,.07,.45,.11,.67,.11,.17,0,.31-.02,.42-.05,.11-.04,.18-.08,.23-.14,.05-.06,.08-.13,.08-.21,0-.1-.04-.18-.12-.24-.08-.06-.18-.11-.32-.15-.13-.04-.27-.07-.43-.11-.16-.03-.31-.08-.47-.12-.16-.05-.3-.11-.43-.19-.13-.08-.24-.19-.31-.32-.08-.13-.12-.3-.12-.49,0-.22,.06-.41,.17-.59,.12-.18,.29-.32,.53-.43,.24-.11,.53-.16,.89-.16,.24,0,.47,.03,.7,.09s.43,.14,.61,.25l-.28,.66c-.17-.1-.34-.17-.52-.22s-.35-.07-.52-.07-.31,.02-.42,.06c-.1,.04-.18,.09-.23,.15-.05,.06-.07,.14-.07,.22,0,.1,.04,.18,.12,.24s.18,.11,.31,.14c.13,.03,.27,.07,.43,.1,.16,.03,.31,.08,.47,.13,.16,.05,.3,.11,.43,.19,.13,.08,.23,.18,.32,.31s.12,.29,.12,.49c0,.21-.06,.41-.17,.58-.12,.18-.29,.32-.53,.43-.24,.11-.53,.16-.89,.16Z"/></g></g></g></g></svg>