<?xml version="1.0" encoding="UTF-8"?><svg xmlns="http://www.w3.org/2000/svg" viewBox="0 0 47.22 47.35"><defs><style>.d{fill:#514af6;}</style></defs><g id="a"/><g id="b"><g id="c"><path class="d" d="M4.84,13.57v3.72c8.38,2,12.58,8.77,19.3,8.7,6.91,.05,10.04-6.72,18.29-8.72,1.43-.36,3.01-.56,4.8-.56v13c-1.79,0-3.38,.2-4.8,.56-8.25,2-11.37,8.77-18.29,8.72-6.72,.07-10.92-6.7-19.3-8.7v3.72c8.38,2,12.58,8.77,19.3,8.7,6.91,.05,10.04-6.72,18.29-8.72,1.43-.36,3.01-.56,4.8-.56v4.64c-1.79,0-3.38,.2-4.8,.56-8.25,2-11.37,8.77-18.29,8.72-7.87,.09-12.28-9.22-24.03-9.28l.04-4.64,.02-3.72,.04-4.64c1.7,.02,3.23,.22,4.64,.58,8.38,2,12.58,8.77,19.3,8.7,6.91,.05,10.04-6.72,18.29-8.72v-3.72c-8.25,2-11.37,8.77-18.29,8.74-6.72,.07-10.92-6.7-19.3-8.72-1.41-.36-2.94-.56-4.62-.58l.02-4.64,.04-3.72,.02-4.64c1.66,.02,3.16,.23,4.55,.58,8.38,2.02,12.58,8.79,19.3,8.72,6.91,.04,10.04-6.73,18.29-8.74v-3.7c-8.25,1.99-11.37,8.76-18.29,8.72-6.72,.07-10.92-6.7-19.3-8.7-1.39-.34-2.89-.56-4.53-.58L.34,0C1.99,.04,3.47,.23,4.84,.58c8.38,2.02,12.58,8.79,19.3,8.72,6.91,.04,10.04-6.73,18.29-8.74,1.43-.36,3.01-.56,4.8-.56V13c-1.79,0-3.38,.2-4.8,.56-8.25,2-11.37,8.77-18.29,8.74-6.72,.07-10.92-6.7-19.3-8.72Z"/></g></g></svg>