<?xml version="1.0" encoding="utf-8"?>
<!-- Generator: Adobe Illustrator 28.2.0, SVG Export Plug-In . SVG Version: 6.00 Build 0)  -->
<svg version="1.0" id="Layer_1" xmlns="http://www.w3.org/2000/svg" xmlns:xlink="http://www.w3.org/1999/xlink" x="0px" y="0px"
	 viewBox="0 0 250 100" style="enable-background:new 0 0 250 100;" xml:space="preserve">
<style type="text/css">
	.st0{fill:#FFFFFF;}
	.st1{fill:url(#SVGID_1_);}
	.st2{fill:url(#SVGID_00000172401391308718867280000000745252180132391043_);}
	.st3{fill:url(#SVGID_00000052797913929935992440000017452315164338704047_);}
	.st4{fill:url(#SVGID_00000146478784355120010430000016704919208284468364_);}
	.st5{fill:url(#SVGID_00000163778268207431180870000011411229180333123004_);}
	.st6{fill:url(#SVGID_00000168093867377632692440000001066089378543357852_);}
	.st7{fill:url(#SVGID_00000031925941317025896830000007623771470946960062_);}
	.st8{fill:url(#SVGID_00000080894229090612927590000000818835944590842807_);}
	.st9{fill:url(#SVGID_00000151540130829147945640000012831630455927788734_);}
	.st10{fill:url(#SVGID_00000168836233027534766060000006413888953893278908_);}
	.st11{fill:url(#SVGID_00000060732760730880971070000018410849082525925811_);}
	.st12{fill:url(#SVGID_00000038406790199469616040000013900153906251280315_);}
	.st13{fill:url(#SVGID_00000149382145194173777830000005716985898135860915_);}
	.st14{fill:url(#SVGID_00000018959336424680345850000017795828236808017542_);}
	.st15{fill:url(#SVGID_00000176020520403789090530000011582839239393240198_);}
	.st16{fill:url(#SVGID_00000065073895442081177340000010660863914585961117_);}
	.st17{fill:url(#SVGID_00000170270643541190491840000017275234995769064373_);}
	.st18{fill:url(#SVGID_00000029018744576295178860000014632064807236900767_);}
	.st19{fill:url(#SVGID_00000116193707904059947150000007831888225976179872_);}
	.st20{fill:url(#SVGID_00000136404844297922791150000008792240761326919835_);}
	.st21{fill:url(#SVGID_00000021803842907933860230000011375512173209417130_);}
	.st22{fill:url(#SVGID_00000091721110266180177140000011767187274329719226_);}
	.st23{fill:url(#SVGID_00000025413172645610737740000007403005994709671808_);}
	.st24{fill:url(#SVGID_00000160878227380903472740000014183060242664010430_);}
	.st25{fill:url(#SVGID_00000077310309082642205600000006595454757474333366_);}
	.st26{fill:url(#SVGID_00000111157342137781703620000016293532346559964346_);}
	.st27{fill:url(#SVGID_00000087382684202387307580000009013154214660223134_);}
	.st28{fill:url(#SVGID_00000027606763547329012940000013576388523574621056_);}
	.st29{fill:url(#SVGID_00000039811930120908112300000005584003059657953192_);}
	.st30{fill:url(#SVGID_00000145757197825006149340000017779445028431895430_);}
	.st31{fill:url(#SVGID_00000150071645323865498020000012578968857446297230_);}
	.st32{fill:url(#SVGID_00000138532550961651501780000003549605365069825946_);}
	.st33{fill:url(#SVGID_00000099637510018359755680000005945688822075462052_);}
	.st34{fill:url(#SVGID_00000183948063548980313280000004202976353581802428_);}
	.st35{fill:url(#SVGID_00000057855928972731548950000012546449978250544304_);}
	.st36{fill:url(#SVGID_00000006678184321995425300000000583071339606909835_);}
	.st37{fill:url(#SVGID_00000023252630027880049890000004322103818970343849_);}
	.st38{fill:url(#SVGID_00000127016263911411371110000009189357188045618825_);}
	.st39{fill:url(#SVGID_00000036939579578339313230000016858177431050801287_);}
	.st40{fill:url(#SVGID_00000158741883842169284240000013636917995071643579_);}
	.st41{fill:url(#SVGID_00000176019130665241953820000010214082587825213064_);}
	.st42{fill:url(#SVGID_00000165929683299604499890000000409687511827385011_);}
	.st43{fill:url(#SVGID_00000036929548912274608230000003393249520270910342_);}
	.st44{fill:url(#SVGID_00000114766116746855848410000001367129770740162973_);}
	.st45{fill:url(#SVGID_00000117635023037265524560000010632051865383211919_);}
	.st46{fill:#262626;}
	.st47{fill:url(#SVGID_00000068646375278156528290000016927885904544547740_);}
	.st48{fill:url(#SVGID_00000158012604622996838770000004347204971692511673_);}
	.st49{fill:url(#SVGID_00000103265520883577476350000010994630588872287371_);}
	.st50{fill:url(#SVGID_00000144329878112567221720000013363733074238757800_);}
	.st51{fill:url(#SVGID_00000175288399160271052500000017272092347584426165_);}
	.st52{fill:url(#SVGID_00000091733320484352031610000003628156990693922732_);}
	.st53{fill:url(#SVGID_00000122681459349273472200000017858578318863285436_);}
	.st54{fill:url(#SVGID_00000181766007390946590790000014362703441247916181_);}
	.st55{fill:url(#SVGID_00000067950535234291902120000008762170427364304283_);}
	.st56{fill:url(#SVGID_00000173852281724051538520000008072085726433122224_);}
	.st57{fill:url(#SVGID_00000051364533631910205200000003599593413542745492_);}
	.st58{fill:url(#SVGID_00000132781358800901428210000015939536035279941023_);}
	.st59{fill:url(#SVGID_00000061457066514605102240000015453556352366605240_);}
	.st60{fill:url(#SVGID_00000037670087074953952620000000315873901116505752_);}
	.st61{fill:url(#SVGID_00000165937897525681181870000007723964241496812168_);}
	.st62{fill:url(#SVGID_00000069396967303094356740000000143898237148296855_);}
	.st63{fill:url(#SVGID_00000005257684052290499190000011276168512912291491_);}
	.st64{fill:url(#SVGID_00000178900535547964587190000014566277597107731620_);}
	.st65{fill:url(#SVGID_00000099643293759886574020000016203149558829443745_);}
	.st66{fill:url(#SVGID_00000036930469572774882940000017565074154485905289_);}
	.st67{fill:url(#SVGID_00000170966409681844694320000014635488610167460779_);}
	.st68{fill:url(#SVGID_00000020361830927294821620000013120644130104704927_);}
	.st69{fill:url(#SVGID_00000024704601599346462700000017455299918365391006_);}
	.st70{fill:url(#SVGID_00000110440768122495545650000011455370608344876448_);}
	.st71{fill:url(#SVGID_00000016053312633146411880000001289027780321756561_);}
	.st72{fill:url(#SVGID_00000117667042597249034840000003216748586126064772_);}
	.st73{fill:url(#SVGID_00000038412848917611284570000011254989831745517195_);}
</style>
<g>
	<g>
		<path class="st0" d="M78.45,54.89c-0.79-0.36-1.41-0.85-1.87-1.48c-0.45-0.63-0.68-1.36-0.7-2.19H78c0.07,0.71,0.37,1.31,0.88,1.8
			c0.52,0.49,1.27,0.73,2.26,0.73c0.94,0,1.69-0.24,2.24-0.71c0.55-0.47,0.82-1.08,0.82-1.82c0-0.58-0.16-1.05-0.48-1.42
			c-0.32-0.36-0.72-0.64-1.2-0.83c-0.48-0.19-1.13-0.39-1.94-0.61c-1-0.26-1.81-0.52-2.41-0.79c-0.6-0.26-1.12-0.67-1.55-1.23
			c-0.43-0.56-0.64-1.31-0.64-2.26c0-0.83,0.21-1.56,0.63-2.2c0.42-0.64,1.01-1.13,1.78-1.48s1.64-0.52,2.63-0.52
			c1.43,0,2.59,0.36,3.5,1.07c0.91,0.71,1.42,1.66,1.54,2.84h-2.18c-0.07-0.58-0.38-1.09-0.92-1.54c-0.54-0.44-1.25-0.67-2.14-0.67
			c-0.83,0-1.51,0.22-2.03,0.64c-0.52,0.43-0.79,1.03-0.79,1.8c0,0.55,0.16,1,0.47,1.35c0.31,0.35,0.7,0.61,1.16,0.8
			c0.46,0.18,1.1,0.39,1.93,0.62c1,0.28,1.81,0.55,2.42,0.82s1.13,0.68,1.57,1.24c0.44,0.56,0.65,1.32,0.65,2.28
			c0,0.74-0.2,1.44-0.59,2.09c-0.39,0.65-0.97,1.19-1.75,1.59c-0.77,0.41-1.68,0.61-2.73,0.61C80.14,55.42,79.24,55.24,78.45,54.89z
			"/>
		<path class="st0" d="M89.13,46.03c0.49-0.92,1.18-1.64,2.06-2.15c0.88-0.51,1.89-0.76,3.02-0.76c1.47,0,2.68,0.36,3.63,1.07
			c0.95,0.71,1.58,1.7,1.89,2.97h-2.14c-0.2-0.73-0.6-1.3-1.19-1.72c-0.59-0.42-1.32-0.63-2.19-0.63c-1.13,0-2.05,0.39-2.75,1.17
			c-0.7,0.78-1.05,1.88-1.05,3.31c0,1.44,0.35,2.55,1.05,3.34c0.7,0.79,1.61,1.18,2.75,1.18c0.87,0,1.6-0.2,2.18-0.61
			c0.58-0.41,0.98-0.99,1.2-1.75h2.14c-0.32,1.22-0.96,2.2-1.92,2.93c-0.96,0.73-2.16,1.1-3.6,1.1c-1.13,0-2.14-0.25-3.02-0.76
			c-0.88-0.51-1.57-1.23-2.06-2.16c-0.5-0.93-0.74-2.02-0.74-3.27C88.39,48.03,88.63,46.95,89.13,46.03z"/>
		<path class="st0" d="M102.37,46.03c0.49-0.92,1.17-1.64,2.04-2.15c0.86-0.51,1.83-0.76,2.89-0.76c1.05,0,1.96,0.23,2.73,0.68
			c0.77,0.45,1.35,1.02,1.72,1.7v-2.18h2.01v11.96h-2.01v-2.23c-0.39,0.7-0.98,1.28-1.76,1.73c-0.78,0.46-1.68,0.69-2.72,0.69
			c-1.06,0-2.02-0.26-2.88-0.79c-0.86-0.52-1.54-1.26-2.03-2.2c-0.5-0.94-0.74-2.02-0.74-3.23
			C101.63,48.03,101.88,46.95,102.37,46.03z M111.21,46.91c-0.36-0.67-0.85-1.18-1.47-1.54c-0.62-0.36-1.3-0.53-2.04-0.53
			c-0.74,0-1.42,0.17-2.03,0.52c-0.61,0.35-1.1,0.86-1.46,1.53c-0.36,0.67-0.55,1.45-0.55,2.36c0,0.92,0.18,1.71,0.55,2.39
			c0.36,0.68,0.85,1.19,1.46,1.55c0.61,0.36,1.29,0.53,2.03,0.53c0.74,0,1.42-0.18,2.04-0.53c0.62-0.36,1.11-0.87,1.47-1.55
			c0.36-0.68,0.55-1.46,0.55-2.37C111.75,48.37,111.57,47.58,111.21,46.91z"/>
		<path class="st0" d="M126.48,44.42c0.9,0.88,1.35,2.15,1.35,3.81v7.05h-1.96v-6.76c0-1.19-0.3-2.11-0.89-2.74
			c-0.6-0.63-1.41-0.95-2.44-0.95c-1.05,0-1.88,0.33-2.5,0.98c-0.62,0.65-0.93,1.61-0.93,2.86v6.61h-1.99V43.31h1.99v1.7
			c0.39-0.61,0.93-1.08,1.6-1.42c0.68-0.33,1.42-0.5,2.24-0.5C124.4,43.1,125.58,43.54,126.48,44.42z"/>
		<path class="st0" d="M131.08,46.03c0.49-0.92,1.17-1.64,2.04-2.15c0.87-0.51,1.84-0.76,2.91-0.76c0.93,0,1.8,0.21,2.6,0.64
			c0.8,0.43,1.41,0.99,1.83,1.69v-6.33h2.01v16.14h-2.01v-2.25c-0.39,0.71-0.97,1.3-1.75,1.76s-1.67,0.69-2.7,0.69
			c-1.06,0-2.03-0.26-2.89-0.79c-0.86-0.52-1.55-1.26-2.04-2.2c-0.49-0.94-0.74-2.02-0.74-3.23
			C130.34,48.03,130.59,46.95,131.08,46.03z M139.92,46.91c-0.36-0.67-0.85-1.18-1.47-1.54c-0.62-0.36-1.3-0.53-2.04-0.53
			c-0.74,0-1.42,0.17-2.03,0.52c-0.61,0.35-1.1,0.86-1.46,1.53c-0.36,0.67-0.55,1.45-0.55,2.36c0,0.92,0.18,1.71,0.55,2.39
			c0.36,0.68,0.85,1.19,1.46,1.55c0.61,0.36,1.29,0.53,2.03,0.53c0.74,0,1.42-0.18,2.04-0.53c0.62-0.36,1.11-0.87,1.47-1.55
			c0.36-0.68,0.55-1.46,0.55-2.37C140.46,48.37,140.28,47.58,139.92,46.91z"/>
		<path class="st0" d="M145.9,40.98c-0.26-0.26-0.39-0.58-0.39-0.96c0-0.38,0.13-0.7,0.39-0.96c0.26-0.26,0.58-0.39,0.96-0.39
			c0.36,0,0.67,0.13,0.93,0.39c0.25,0.26,0.38,0.58,0.38,0.96c0,0.38-0.13,0.7-0.38,0.96c-0.25,0.26-0.56,0.39-0.93,0.39
			C146.48,41.37,146.16,41.24,145.9,40.98z M147.82,43.31v11.96h-1.98V43.31H147.82z"/>
		<path class="st0" d="M151.2,46.03c0.49-0.92,1.18-1.64,2.06-2.15s1.89-0.76,3.02-0.76c1.47,0,2.68,0.36,3.63,1.07
			c0.95,0.71,1.58,1.7,1.89,2.97h-2.14c-0.2-0.73-0.6-1.3-1.19-1.72c-0.59-0.42-1.32-0.63-2.19-0.63c-1.13,0-2.05,0.39-2.75,1.17
			c-0.7,0.78-1.05,1.88-1.05,3.31c0,1.44,0.35,2.55,1.05,3.34c0.7,0.79,1.61,1.18,2.75,1.18c0.87,0,1.6-0.2,2.18-0.61
			c0.58-0.41,0.98-0.99,1.2-1.75h2.14c-0.32,1.22-0.96,2.2-1.92,2.93c-0.96,0.73-2.16,1.1-3.6,1.1c-1.13,0-2.14-0.25-3.02-0.76
			c-0.88-0.51-1.57-1.23-2.06-2.16c-0.49-0.93-0.74-2.02-0.74-3.27C150.45,48.03,150.7,46.95,151.2,46.03z"/>
		<path class="st0" d="M173.8,40.06v1.61h-4.15v13.59h-1.98V41.68h-4.17v-1.61H173.8z"/>
		<path class="st0" d="M187.08,50.03h-9.56c0.07,1.18,0.48,2.1,1.21,2.76c0.73,0.66,1.63,0.99,2.67,0.99c0.86,0,1.57-0.2,2.15-0.6
			c0.57-0.4,0.98-0.93,1.21-1.6h2.14c-0.32,1.15-0.96,2.08-1.92,2.8c-0.96,0.72-2.15,1.08-3.58,1.08c-1.13,0-2.15-0.25-3.04-0.76
			c-0.9-0.51-1.6-1.23-2.11-2.17c-0.51-0.94-0.76-2.03-0.76-3.26c0-1.24,0.25-2.32,0.74-3.25c0.49-0.93,1.19-1.65,2.08-2.15
			c0.9-0.5,1.92-0.75,3.09-0.75c1.13,0,2.14,0.25,3.01,0.74c0.87,0.49,1.54,1.17,2.02,2.04c0.47,0.86,0.71,1.84,0.71,2.93
			C187.15,49.21,187.13,49.61,187.08,50.03z M184.6,46.47c-0.33-0.55-0.79-0.96-1.36-1.24c-0.57-0.28-1.21-0.42-1.91-0.42
			c-1,0-1.86,0.32-2.56,0.96c-0.71,0.64-1.11,1.53-1.21,2.66h7.55C185.1,47.66,184.93,47.01,184.6,46.47z"/>
		<path class="st0" d="M189.77,46.03c0.49-0.92,1.18-1.64,2.06-2.15c0.88-0.51,1.89-0.76,3.02-0.76c1.47,0,2.68,0.36,3.63,1.07
			c0.95,0.71,1.58,1.7,1.89,2.97h-2.14c-0.2-0.73-0.6-1.3-1.19-1.72c-0.59-0.42-1.32-0.63-2.19-0.63c-1.13,0-2.05,0.39-2.75,1.17
			c-0.7,0.78-1.05,1.88-1.05,3.31c0,1.44,0.35,2.55,1.05,3.34c0.7,0.79,1.61,1.18,2.75,1.18c0.87,0,1.6-0.2,2.18-0.61
			c0.58-0.41,0.98-0.99,1.2-1.75h2.14c-0.32,1.22-0.96,2.2-1.92,2.93c-0.96,0.73-2.16,1.1-3.6,1.1c-1.13,0-2.14-0.25-3.02-0.76
			c-0.88-0.51-1.57-1.23-2.06-2.16c-0.49-0.93-0.74-2.02-0.74-3.27C189.03,48.03,189.27,46.95,189.77,46.03z"/>
		<path class="st0" d="M211.39,43.67c0.73,0.39,1.3,0.96,1.71,1.73c0.41,0.77,0.62,1.71,0.62,2.81v7.05h-1.96v-6.76
			c0-1.19-0.3-2.11-0.89-2.74c-0.6-0.63-1.41-0.95-2.44-0.95c-1.05,0-1.88,0.33-2.5,0.98c-0.62,0.65-0.93,1.61-0.93,2.86v6.61h-1.98
			V39.12H205v5.89c0.39-0.61,0.93-1.08,1.63-1.42c0.69-0.33,1.47-0.5,2.32-0.5C209.85,43.1,210.66,43.29,211.39,43.67z"/>
	</g>
	<g>
		<g>
			<linearGradient id="SVGID_1_" gradientUnits="userSpaceOnUse" x1="57.7104" y1="62.3638" x2="56.2337" y2="59.4924">
				<stop  offset="0" style="stop-color:#221F59"/>
				<stop  offset="1" style="stop-color:#414299"/>
			</linearGradient>
			<path class="st1" d="M65.59,49.19c0,0.07,0,0.13,0,0.2c-0.01,0.91-0.11,1.79-0.28,2.66c-0.21,1.06-0.54,2.08-0.96,3.05
				c-0.04,0.09-0.08,0.18-0.12,0.26c-0.11,0.24-0.23,0.48-0.35,0.71c-0.15,0.29-0.31,0.56-0.48,0.84c-1.26,2.04-3.01,3.74-5.08,4.94
				c-0.58,0.34-1.18,0.64-1.8,0.9c-1.72,0.71-3.6,1.1-5.58,1.1c-1.02,0-2.01-0.1-2.96-0.3c-1.56-0.32-3.03-0.89-4.37-1.66
				c-2.85-1.65-5.09-4.22-6.31-7.32c-0.62-1.58-0.98-3.29-1.01-5.09c0-0.1,0-0.19,0-0.29c0-1.33,0.18-2.62,0.51-3.84
				c0.06-0.21,0.12-0.43,0.19-0.64c0.29-0.89,0.65-1.75,1.1-2.56c0.06-0.11,0.12-0.22,0.19-0.34c0.43-0.74,0.92-1.44,1.47-2.09
				c0.3-0.36,0.63-0.71,0.97-1.04c0.25-0.24,0.51-0.48,0.78-0.71c0.68-0.58,1.42-1.1,2.2-1.54c1.51-0.86,3.18-1.45,4.96-1.73
				c0.74-0.12,1.5-0.18,2.28-0.18c3.14,0,6.06,0.99,8.44,2.67c1.11,0.78,2.11,1.71,2.96,2.77c0.22,0.27,0.43,0.55,0.62,0.83
				c0.45,0.64,0.85,1.33,1.2,2.04c0.02,0.04,0.04,0.09,0.06,0.13C65.1,44.86,65.59,46.97,65.59,49.19z"/>
			
				<linearGradient id="SVGID_00000114044366274354153980000016363156484046183045_" gradientUnits="userSpaceOnUse" x1="52.9731" y1="38.3181" x2="54.338" y2="34.6784">
				<stop  offset="0" style="stop-color:#221F59"/>
				<stop  offset="1" style="stop-color:#414299"/>
			</linearGradient>
			<path style="fill:url(#SVGID_00000114044366274354153980000016363156484046183045_);" d="M62.33,39.97
				c-1.23,0.51-3.19,0.5-4.18,0.54c-3.62,0-7.31-0.22-10.75-1.41c-1.14-0.42-3.33-1.36-3.71-2.66c1.51-0.86,3.18-1.45,4.96-1.73
				c0.74-0.12,1.5-0.18,2.28-0.18c3.14,0,6.06,0.99,8.44,2.67C60.48,37.99,61.48,38.92,62.33,39.97z"/>
			
				<linearGradient id="SVGID_00000115504374822318754350000013430889790571287169_" gradientUnits="userSpaceOnUse" x1="52.1711" y1="40.6097" x2="53.3008" y2="36.2648">
				<stop  offset="0" style="stop-color:#221F59"/>
				<stop  offset="1" style="stop-color:#414299"/>
			</linearGradient>
			<path style="fill:url(#SVGID_00000115504374822318754350000013430889790571287169_);" d="M64.21,42.98
				c-0.21,0.12-0.44,0.23-0.66,0.32c-0.51,0.21-1.07,0.4-1.61,0.59c-2.53,0.86-4.78,2.29-7.14,3.59c-5.9,3.16-9.32,1.22-12.73-3.99
				c-0.69-1.11-1.84-2.4-2.33-3.76c0.3-0.36,0.63-0.71,0.97-1.04c0.25-0.24,0.51-0.48,0.78-0.71c0.68-0.58,1.42-1.1,2.2-1.54
				c1.51-0.86,3.18-1.45,4.96-1.73c1.29,1.17,2.6,2.9,7.35,2.74c1.15-0.03,2.27-0.21,3.37-0.24c1.11,0.78,2.11,1.71,2.96,2.77
				c0.22,0.27,0.43,0.55,0.62,0.83c0.45,0.64,0.85,1.33,1.2,2.04C64.18,42.89,64.19,42.93,64.21,42.98z"/>
			
				<linearGradient id="SVGID_00000167378171014053814690000000782162597173268885_" gradientUnits="userSpaceOnUse" x1="51.9955" y1="44.9999" x2="52.6541" y2="40.2104">
				<stop  offset="0" style="stop-color:#221F59"/>
				<stop  offset="1" style="stop-color:#414299"/>
			</linearGradient>
			<path style="fill:url(#SVGID_00000167378171014053814690000000782162597173268885_);" d="M65.59,49.19c0,0.07,0,0.13,0,0.2
				c-0.01,0.91-0.11,1.79-0.28,2.66c-0.21,1.06-0.54,2.08-0.96,3.05c-0.19,0.08-0.38,0.14-0.59,0.19c-0.07,0.02-0.14,0.04-0.21,0.05
				c-1.23,0.29-2.69,0.28-4.03,0.26c-0.68-0.02-1.35-0.05-2.02-0.11c-0.72-0.06-1.43-0.16-2.13-0.29c-0.33-0.06-0.65-0.13-0.97-0.21
				c-1.57-0.38-3.08-0.98-4.47-1.78c-4.25-2.46-7.51-6.66-11.14-10.15c-0.28-0.3-0.53-0.6-0.72-0.91c0.06-0.11,0.12-0.22,0.19-0.34
				c0.43-0.74,0.92-1.44,1.47-2.09c0.3-0.36,0.63-0.71,0.97-1.04c0.25-0.24,0.51-0.48,0.78-0.71c0.68,0.23,1.39,0.66,2.04,1.06
				c1.6,0.99,3.3,1.88,5.09,2.44c3.18,1.04,6.25,0.62,9.42-0.17c1.6-0.36,3.34-0.82,4.92-0.51c0.45,0.64,0.85,1.33,1.2,2.04
				c0.02,0.04,0.04,0.09,0.06,0.13C65.1,44.86,65.59,46.97,65.59,49.19z"/>
			
				<linearGradient id="SVGID_00000047052661519848498040000010126272549425617343_" gradientUnits="userSpaceOnUse" x1="50.8725" y1="50.7884" x2="51.6179" y2="43.3914">
				<stop  offset="0" style="stop-color:#221F59"/>
				<stop  offset="1" style="stop-color:#414299"/>
			</linearGradient>
			<path style="fill:url(#SVGID_00000047052661519848498040000010126272549425617343_);" d="M65.59,49.19c0,0.07,0,0.13,0,0.2
				c-0.01,0.91-0.11,1.79-0.28,2.66c-1.39,1.36-3.53,2.1-5.4,2.48c-1.5,0.32-3.01,0.54-4.54,0.67c-0.38,0.03-0.77,0.05-1.15,0.07
				c-1.49,0.07-2.99,0.05-4.48-0.06c-2.86-0.2-5.76-0.91-8.04-2.64c-0.35-0.26-0.69-0.55-1.01-0.87c-0.12-0.12-0.25-0.25-0.37-0.37
				c-1.51-1.57-2.74-3.49-3.41-5.56c-0.04-0.14-0.09-0.29-0.12-0.43c0.06-0.21,0.12-0.43,0.19-0.64c0.29-0.89,0.65-1.75,1.1-2.56
				c0.06-0.11,0.12-0.22,0.19-0.34c0.43-0.74,0.92-1.44,1.47-2.09c0.3-0.36,0.63-0.71,0.97-1.04c0.03,0.02,0.06,0.05,0.09,0.08
				c0.82,0.77,1.47,1.77,2.28,2.6c2.21,2.25,4.87,4.4,7.93,5.24c5.67,1.36,6.74-3.64,10.17-4.54c1.11-0.23,2.12,0.12,2.98,0.79
				c0.02,0.04,0.04,0.09,0.06,0.13C65.1,44.86,65.59,46.97,65.59,49.19z"/>
			
				<linearGradient id="SVGID_00000142165167782131202790000017176982111698974895_" gradientUnits="userSpaceOnUse" x1="48.4754" y1="56.8228" x2="52.3986" y2="44.6493">
				<stop  offset="0" style="stop-color:#221F59"/>
				<stop  offset="1" style="stop-color:#414299"/>
			</linearGradient>
			<path style="fill:url(#SVGID_00000142165167782131202790000017176982111698974895_);" d="M65.59,49.39
				c-0.01,0.91-0.11,1.79-0.28,2.66c-0.21,1.06-0.54,2.08-0.96,3.05c-0.04,0.09-0.08,0.18-0.12,0.26c-0.11,0.24-0.23,0.48-0.35,0.71
				c-0.15,0.29-0.31,0.56-0.48,0.84c-1.6,0.93-3.59,1.32-5.33,2.11c-1.81,0.74-3.51,1.79-5.25,2.72c-0.27,0.14-0.54,0.28-0.82,0.42
				c-0.97,0.48-1.96,0.9-3.01,1.18c-0.35,0.1-0.69,0.17-1.02,0.22c-1.56-0.32-3.03-0.89-4.37-1.66c-2.85-1.65-5.09-4.22-6.31-7.32
				c-0.62-1.58-0.98-3.29-1.01-5.09c0-0.1,0-0.19,0-0.29c0-1.33,0.18-2.62,0.51-3.84c0.06-0.21,0.12-0.43,0.19-0.64
				c0.29-0.89,0.65-1.75,1.1-2.56c0.06-0.11,0.12-0.22,0.19-0.34c0.27,0.16,0.55,0.4,0.85,0.68c0.51,0.48,1.09,1.08,1.7,1.65
				c0.89,0.82,1.84,1.56,2.73,2.37c1.95,1.65,3.51,3.97,6.02,4.75c3.28,1.06,8.23-0.01,11.6-0.76c1.04-0.25,1.96-0.52,2.74-0.77
				C64.49,49.56,65.09,49.36,65.59,49.39z"/>
			
				<linearGradient id="SVGID_00000052104549712843716780000010967653619999033272_" gradientUnits="userSpaceOnUse" x1="49.4481" y1="60.067" x2="50.1087" y2="53.8211">
				<stop  offset="0" style="stop-color:#221F59"/>
				<stop  offset="1" style="stop-color:#414299"/>
			</linearGradient>
			<path style="fill:url(#SVGID_00000052104549712843716780000010967653619999033272_);" d="M64.23,55.36
				c-0.11,0.24-0.23,0.48-0.35,0.71c-0.15,0.29-0.31,0.56-0.48,0.84c-1.26,2.04-3.01,3.74-5.08,4.94c-0.85,0.09-1.71,0.12-2.55,0.17
				c-0.58,0.03-1.16,0.05-1.74,0.07c-0.67,0.03-1.35,0.04-2.02,0.05c-1.66,0.03-3.33,0.02-4.94-0.04c-1.13-0.05-2.31-0.08-3.45-0.23
				c-2.85-1.65-5.09-4.22-6.31-7.32c-0.62-1.58-0.98-3.29-1.01-5.09c0.05,0.01,0.1,0.03,0.16,0.04c1.12,0.35,2.36,1.11,3.47,1.62
				c0.14,0.06,0.28,0.13,0.41,0.2c0.26,0.12,0.53,0.24,0.79,0.36c1.51,0.67,3.06,1.26,4.59,1.75c2.78,0.89,5.63,1.51,8.51,1.82
				c1.09,0.12,2.19,0.19,3.29,0.22c1.41,0.04,2.83-0.01,4.25-0.13c0.56-0.03,1.33-0.12,2-0.07C63.93,55.3,64.09,55.33,64.23,55.36z"
				/>
			
				<linearGradient id="SVGID_00000013882936451477048520000009922008414611814334_" gradientUnits="userSpaceOnUse" x1="51.4614" y1="62.9668" x2="50.9501" y2="58.493">
				<stop  offset="0" style="stop-color:#221F59"/>
				<stop  offset="1" style="stop-color:#414299"/>
			</linearGradient>
			<path style="fill:url(#SVGID_00000013882936451477048520000009922008414611814334_);" d="M63.88,56.07
				c-0.15,0.29-0.31,0.56-0.48,0.84c-1.26,2.04-3.01,3.74-5.08,4.94c-0.58,0.34-1.18,0.64-1.8,0.9c-1.72,0.71-3.6,1.1-5.58,1.1
				c-1.02,0-2.01-0.1-2.96-0.3c-1.56-0.32-3.03-0.89-4.37-1.66c-2.85-1.65-5.09-4.22-6.31-7.32c0.3,0.09,0.58,0.21,0.79,0.29
				c2.45,1.12,5.01,2.13,7.68,2.68c0.95,0.2,1.92,0.34,2.9,0.4c1.12,0.08,2.26,0.05,3.31-0.12c0.99-0.17,1.89-0.45,2.87-0.69
				c1.96-0.5,4.02-0.78,6.15-0.99C61.73,56.09,62.97,55.89,63.88,56.07z"/>
			
				<linearGradient id="SVGID_00000056401377431585356030000017767272597370463122_" gradientUnits="userSpaceOnUse" x1="41.525" y1="59.0776" x2="45.2816" y2="55.2272">
				<stop  offset="0" style="stop-color:#221F59"/>
				<stop  offset="1" style="stop-color:#414299"/>
			</linearGradient>
			<path style="fill:url(#SVGID_00000056401377431585356030000017767272597370463122_);" d="M56.51,62.75
				c-1.72,0.71-3.6,1.1-5.58,1.1c-1.02,0-2.01-0.1-2.96-0.3c-1.56-0.32-3.03-0.89-4.37-1.66c-2.85-1.65-5.09-4.22-6.31-7.32
				c-0.62-1.58-0.98-3.29-1.01-5.09c0-0.1,0-0.19,0-0.29c0-1.33,0.18-2.62,0.51-3.84c0.06-0.21,0.12-0.43,0.19-0.64
				c0.3,0.46,0.56,0.96,0.72,1.21c1.1,1.93,2.2,3.89,3.42,5.77c0.19,0.29,0.38,0.59,0.58,0.88c1.2,1.79,2.52,3.47,4.06,4.96
				c0.55,0.54,1.13,1.04,1.74,1.53c1.6,1.21,3.42,2.05,5.32,2.67c0.4,0.13,0.79,0.25,1.2,0.36c0,0,0.01,0,0.01,0
				C54.53,62.27,55.6,62.48,56.51,62.75z"/>
		</g>
		<g>
			<path class="st0" d="M58.28,43.7v2.36c-2.54,0.37-4.4,5.05-4.4,7.37c0,0.16,0,0.37,0,0.55v0.25h-2.77v-0.51
				c0-1.28,0.36-3.17,0.93-4.8c0.66-1.95,1.52-3.33,2.4-3.89l0.23-0.15l-0.23-0.15c-2.08-1.32-3.33-3.5-3.33-5.84V38.4h2.77v0.28
				c0,0.16,0,0.35,0,0.49C53.89,41.53,55.78,43.47,58.28,43.7z"/>
			<path class="st0" d="M47.43,50.47l-0.23,0.15l0.23,0.15c0.88,0.56,1.74,1.94,2.4,3.89c0.56,1.63,0.93,3.52,0.93,4.8v0.51h-2.77
				v-0.25c0-0.18,0-0.4,0-0.55c0-2.32-1.85-7-4.4-7.37v-2.36c2.51-0.23,4.4-2.17,4.4-4.53c0-0.14,0-0.33,0-0.49v-0.28h2.77v0.48
				C50.75,46.97,49.51,49.15,47.43,50.47z"/>
		</g>
	</g>
	<g>
		<path class="st0" d="M80.94,61.28c0,0.43-0.06,0.81-0.19,1.14s-0.31,0.6-0.53,0.82c-0.22,0.22-0.49,0.39-0.8,0.5
			c-0.31,0.11-0.64,0.17-0.99,0.17H76.5v-5.16h1.71c0.4,0,0.76,0.05,1.1,0.15c0.34,0.1,0.62,0.25,0.87,0.46
			c0.24,0.21,0.43,0.47,0.57,0.79C80.87,60.46,80.94,60.84,80.94,61.28z M80.24,61.28c0-0.35-0.05-0.65-0.15-0.9
			c-0.1-0.25-0.24-0.45-0.42-0.61c-0.18-0.16-0.4-0.28-0.65-0.35c-0.25-0.07-0.53-0.11-0.83-0.11H77.2v4.04h1.15
			c0.27,0,0.52-0.04,0.75-0.13c0.23-0.09,0.43-0.22,0.6-0.39c0.17-0.17,0.3-0.39,0.4-0.65C80.19,61.92,80.24,61.62,80.24,61.28z"/>
		<path class="st0" d="M81.8,59.11v-0.63h0.66v0.63H81.8z M81.8,63.91v-3.96h0.66v3.96H81.8z"/>
		<path class="st0" d="M85.99,63.91V61.4c0-0.19-0.01-0.35-0.04-0.48c-0.03-0.13-0.07-0.23-0.14-0.31
			c-0.06-0.08-0.15-0.14-0.25-0.17c-0.1-0.03-0.23-0.05-0.39-0.05c-0.16,0-0.3,0.03-0.42,0.08c-0.13,0.05-0.23,0.13-0.32,0.24
			c-0.09,0.1-0.16,0.23-0.21,0.38c-0.05,0.15-0.07,0.33-0.07,0.53v2.3h-0.66V60.8c0-0.08,0-0.17,0-0.26c0-0.09,0-0.18-0.01-0.26
			c0-0.08-0.01-0.15-0.01-0.21c0-0.06,0-0.1-0.01-0.11h0.62c0,0.01,0,0.05,0.01,0.1c0,0.05,0.01,0.12,0.01,0.19
			c0,0.07,0.01,0.14,0.01,0.21c0,0.07,0,0.13,0,0.18h0.01c0.06-0.11,0.13-0.22,0.21-0.31s0.16-0.17,0.26-0.24
			c0.1-0.06,0.21-0.11,0.34-0.15c0.13-0.04,0.28-0.05,0.45-0.05c0.22,0,0.41,0.03,0.57,0.08c0.16,0.05,0.29,0.14,0.39,0.25
			c0.1,0.11,0.18,0.26,0.23,0.43c0.05,0.18,0.07,0.39,0.07,0.63v2.64H85.99z"/>
		<path class="st0" d="M92.23,63.28c-0.12,0.25-0.28,0.44-0.49,0.55c-0.2,0.11-0.45,0.16-0.75,0.16c-0.5,0-0.87-0.17-1.1-0.51
			s-0.35-0.85-0.35-1.53c0-1.38,0.49-2.07,1.46-2.07c0.3,0,0.55,0.05,0.75,0.16c0.2,0.11,0.36,0.28,0.48,0.52h0.01
			c0-0.02,0-0.06,0-0.12c0-0.05,0-0.11,0-0.16c0-0.06,0-0.11,0-0.16c0-0.05,0-0.09,0-0.11v-1.53h0.66v4.62c0,0.1,0,0.19,0,0.27
			c0,0.09,0,0.17,0.01,0.24c0,0.07,0,0.14,0.01,0.19c0,0.05,0,0.09,0.01,0.11h-0.63c0-0.02-0.01-0.06-0.01-0.1
			c0-0.05-0.01-0.1-0.01-0.16c0-0.06-0.01-0.12-0.01-0.18c0-0.06,0-0.13,0-0.19H92.23z M90.23,61.93c0,0.27,0.02,0.51,0.05,0.7
			c0.03,0.2,0.09,0.36,0.16,0.48s0.17,0.22,0.29,0.28c0.12,0.06,0.26,0.09,0.43,0.09c0.17,0,0.33-0.03,0.46-0.08
			s0.24-0.15,0.33-0.27c0.09-0.13,0.16-0.29,0.2-0.49c0.05-0.2,0.07-0.45,0.07-0.74c0-0.28-0.02-0.52-0.07-0.71
			c-0.05-0.19-0.11-0.35-0.21-0.47c-0.09-0.12-0.2-0.21-0.33-0.26c-0.13-0.05-0.28-0.08-0.45-0.08c-0.16,0-0.3,0.03-0.42,0.08
			c-0.12,0.06-0.21,0.15-0.29,0.27c-0.08,0.12-0.14,0.29-0.17,0.49C90.25,61.4,90.23,61.65,90.23,61.93z"/>
		<path class="st0" d="M93.89,59.11v-0.63h0.66v0.63H93.89z M93.89,63.91v-3.96h0.66v3.96H93.89z"/>
		<path class="st0" d="M97.06,65.47c-0.23,0-0.43-0.02-0.6-0.07c-0.18-0.05-0.33-0.11-0.45-0.2c-0.12-0.09-0.23-0.19-0.3-0.31
			c-0.08-0.12-0.13-0.25-0.17-0.4l0.66-0.1c0.04,0.18,0.14,0.32,0.29,0.42c0.15,0.1,0.35,0.15,0.59,0.15c0.15,0,0.28-0.02,0.41-0.06
			c0.12-0.04,0.23-0.11,0.31-0.2c0.09-0.09,0.15-0.21,0.2-0.36c0.05-0.15,0.07-0.32,0.07-0.53v-0.64h-0.01
			c-0.05,0.1-0.11,0.2-0.18,0.29c-0.07,0.09-0.16,0.17-0.26,0.24s-0.22,0.13-0.36,0.17c-0.14,0.04-0.29,0.06-0.47,0.06
			c-0.25,0-0.47-0.04-0.65-0.13c-0.18-0.08-0.33-0.21-0.44-0.38c-0.11-0.17-0.2-0.38-0.25-0.63c-0.05-0.25-0.08-0.54-0.08-0.87
			c0-0.32,0.03-0.6,0.08-0.86c0.05-0.25,0.14-0.47,0.26-0.65c0.12-0.18,0.27-0.31,0.46-0.41c0.19-0.09,0.42-0.14,0.69-0.14
			c0.28,0,0.52,0.06,0.73,0.19c0.21,0.13,0.37,0.31,0.48,0.55h0.01c0-0.06,0-0.13,0.01-0.21c0-0.08,0.01-0.15,0.01-0.21
			c0-0.07,0.01-0.13,0.01-0.17c0-0.05,0.01-0.08,0.01-0.08h0.63c0,0.02,0,0.06-0.01,0.11c0,0.05,0,0.12-0.01,0.19
			c0,0.07,0,0.15-0.01,0.24c0,0.09,0,0.18,0,0.28v3.03c0,0.55-0.14,0.97-0.41,1.25C98.04,65.33,97.62,65.47,97.06,65.47z
			 M98.06,61.93c0-0.28-0.03-0.51-0.09-0.71c-0.06-0.2-0.14-0.36-0.24-0.48c-0.1-0.12-0.21-0.22-0.33-0.27
			c-0.13-0.06-0.25-0.09-0.39-0.09c-0.17,0-0.31,0.03-0.43,0.09c-0.12,0.06-0.22,0.15-0.3,0.28c-0.08,0.13-0.14,0.29-0.18,0.48
			c-0.04,0.2-0.06,0.43-0.06,0.7c0,0.29,0.02,0.53,0.06,0.72c0.04,0.19,0.1,0.35,0.17,0.47c0.08,0.12,0.18,0.21,0.3,0.26
			c0.12,0.05,0.26,0.08,0.43,0.08c0.13,0,0.26-0.03,0.39-0.08s0.24-0.15,0.34-0.27c0.1-0.12,0.18-0.28,0.24-0.47
			C98.03,62.44,98.06,62.21,98.06,61.93z"/>
		<path class="st0" d="M99.73,59.11v-0.63h0.66v0.63H99.73z M99.73,63.91v-3.96h0.66v3.96H99.73z"/>
		<path class="st0" d="M102.92,63.88c-0.1,0.03-0.2,0.05-0.31,0.06c-0.1,0.02-0.22,0.02-0.36,0.02c-0.53,0-0.79-0.3-0.79-0.9v-2.64
			H101v-0.48h0.48l0.19-0.89h0.44v0.89h0.73v0.48h-0.73v2.5c0,0.19,0.03,0.32,0.09,0.4c0.06,0.08,0.17,0.12,0.32,0.12
			c0.06,0,0.13,0,0.18-0.01c0.06-0.01,0.13-0.02,0.2-0.04V63.88z"/>
		<path class="st0" d="M104.49,63.99c-0.4,0-0.7-0.1-0.9-0.31c-0.2-0.21-0.3-0.5-0.3-0.86c0-0.26,0.05-0.48,0.15-0.64
			c0.1-0.17,0.23-0.3,0.39-0.39c0.16-0.1,0.34-0.16,0.55-0.2c0.21-0.04,0.41-0.06,0.63-0.06l0.89-0.01v-0.22
			c0-0.16-0.02-0.3-0.05-0.42c-0.03-0.11-0.09-0.21-0.16-0.28c-0.07-0.07-0.16-0.12-0.27-0.16c-0.11-0.03-0.23-0.05-0.38-0.05
			c-0.13,0-0.24,0.01-0.34,0.03c-0.1,0.02-0.19,0.05-0.27,0.1c-0.08,0.05-0.14,0.11-0.18,0.19c-0.05,0.08-0.08,0.18-0.09,0.31
			l-0.69-0.06c0.02-0.16,0.07-0.3,0.14-0.43c0.07-0.13,0.17-0.24,0.29-0.34c0.13-0.1,0.28-0.17,0.47-0.22
			c0.19-0.05,0.42-0.08,0.69-0.08c0.5,0,0.87,0.11,1.12,0.34s0.38,0.56,0.38,0.99v1.71c0,0.2,0.03,0.34,0.08,0.44
			c0.05,0.1,0.15,0.15,0.29,0.15c0.04,0,0.07,0,0.11-0.01c0.04,0,0.07-0.01,0.11-0.02v0.41c-0.08,0.02-0.17,0.03-0.25,0.04
			c-0.08,0.01-0.17,0.01-0.26,0.01c-0.12,0-0.23-0.02-0.32-0.05c-0.09-0.03-0.16-0.08-0.22-0.15c-0.06-0.07-0.1-0.15-0.13-0.25
			c-0.03-0.1-0.05-0.21-0.05-0.35h-0.02c-0.07,0.13-0.15,0.24-0.23,0.34c-0.08,0.1-0.18,0.19-0.29,0.26
			c-0.11,0.07-0.24,0.13-0.38,0.17C104.84,63.97,104.67,63.99,104.49,63.99z M104.64,63.49c0.21,0,0.39-0.04,0.55-0.12
			c0.16-0.08,0.29-0.18,0.39-0.29c0.1-0.12,0.18-0.25,0.23-0.39c0.05-0.14,0.08-0.28,0.08-0.41v-0.33l-0.72,0.01
			c-0.16,0-0.31,0.01-0.46,0.03c-0.15,0.02-0.27,0.06-0.38,0.12c-0.11,0.06-0.2,0.15-0.26,0.26c-0.06,0.11-0.1,0.25-0.1,0.43
			c0,0.21,0.06,0.38,0.17,0.5C104.26,63.43,104.42,63.49,104.64,63.49z"/>
		<path class="st0" d="M107.65,63.91v-5.43h0.66v5.43H107.65z"/>
		<path class="st0" d="M109.82,62.07c0,0.21,0.02,0.4,0.06,0.57c0.04,0.17,0.11,0.32,0.2,0.45c0.09,0.13,0.2,0.22,0.34,0.29
			c0.14,0.07,0.31,0.1,0.5,0.1c0.29,0,0.51-0.06,0.69-0.17c0.17-0.11,0.29-0.26,0.35-0.44l0.58,0.16c-0.04,0.11-0.1,0.22-0.17,0.33
			c-0.07,0.11-0.17,0.21-0.3,0.3c-0.12,0.09-0.28,0.16-0.47,0.22c-0.19,0.06-0.41,0.09-0.68,0.09c-0.59,0-1.03-0.17-1.34-0.52
			c-0.31-0.35-0.46-0.87-0.46-1.56c0-0.37,0.05-0.69,0.14-0.94c0.09-0.26,0.22-0.47,0.38-0.63c0.16-0.16,0.35-0.28,0.56-0.35
			c0.21-0.07,0.44-0.11,0.69-0.11c0.33,0,0.61,0.05,0.83,0.16c0.22,0.11,0.4,0.26,0.54,0.44c0.14,0.19,0.23,0.41,0.29,0.67
			c0.06,0.26,0.09,0.53,0.09,0.83v0.09H109.82z M111.96,61.57c-0.04-0.42-0.14-0.72-0.32-0.91c-0.18-0.19-0.43-0.29-0.76-0.29
			c-0.11,0-0.23,0.02-0.35,0.05c-0.12,0.04-0.23,0.1-0.34,0.19c-0.1,0.09-0.19,0.21-0.26,0.37c-0.07,0.15-0.11,0.35-0.12,0.59
			H111.96z"/>
		<path class="st0" d="M115.58,63.91v-3.04c0-0.08,0-0.17,0-0.25c0-0.09,0-0.17-0.01-0.25c0-0.08,0-0.16-0.01-0.23s0-0.13-0.01-0.19
			h0.62c0,0.06,0.01,0.12,0.01,0.19c0,0.07,0.01,0.15,0.01,0.22c0,0.08,0.01,0.15,0.01,0.22c0,0.07,0,0.13,0,0.18h0.01
			c0.05-0.15,0.1-0.28,0.15-0.39c0.05-0.11,0.11-0.2,0.18-0.27c0.07-0.07,0.16-0.13,0.25-0.16c0.1-0.04,0.22-0.05,0.36-0.05
			c0.05,0,0.1,0,0.15,0.01c0.05,0.01,0.09,0.02,0.11,0.02v0.6c-0.04-0.01-0.1-0.02-0.15-0.03c-0.06-0.01-0.12-0.01-0.2-0.01
			c-0.15,0-0.28,0.03-0.39,0.1c-0.11,0.07-0.19,0.16-0.26,0.28c-0.07,0.12-0.12,0.26-0.15,0.43c-0.03,0.17-0.05,0.35-0.05,0.55v2.06
			H115.58z"/>
		<path class="st0" d="M118.57,62.07c0,0.21,0.02,0.4,0.06,0.57c0.04,0.17,0.11,0.32,0.2,0.45c0.09,0.13,0.2,0.22,0.34,0.29
			c0.14,0.07,0.31,0.1,0.5,0.1c0.29,0,0.51-0.06,0.69-0.17c0.17-0.11,0.29-0.26,0.35-0.44l0.58,0.16c-0.04,0.11-0.1,0.22-0.17,0.33
			c-0.07,0.11-0.17,0.21-0.3,0.3c-0.12,0.09-0.28,0.16-0.47,0.22c-0.19,0.06-0.41,0.09-0.68,0.09c-0.59,0-1.03-0.17-1.34-0.52
			c-0.31-0.35-0.46-0.87-0.46-1.56c0-0.37,0.05-0.69,0.14-0.94c0.09-0.26,0.22-0.47,0.38-0.63c0.16-0.16,0.35-0.28,0.56-0.35
			c0.21-0.07,0.44-0.11,0.69-0.11c0.33,0,0.61,0.05,0.83,0.16c0.22,0.11,0.4,0.26,0.54,0.44c0.14,0.19,0.23,0.41,0.29,0.67
			c0.06,0.26,0.09,0.53,0.09,0.83v0.09H118.57z M120.71,61.57c-0.04-0.42-0.14-0.72-0.32-0.91s-0.43-0.29-0.76-0.29
			c-0.11,0-0.23,0.02-0.35,0.05c-0.12,0.04-0.23,0.1-0.34,0.19c-0.1,0.09-0.19,0.21-0.26,0.37c-0.07,0.15-0.11,0.35-0.12,0.59
			H120.71z"/>
		<path class="st0" d="M122.89,64.4c0,0.15-0.01,0.29-0.04,0.42c-0.03,0.13-0.07,0.24-0.14,0.34c-0.07,0.1-0.16,0.17-0.27,0.23
			c-0.11,0.06-0.26,0.08-0.43,0.08c-0.08,0-0.16,0-0.24-0.01c-0.08,0-0.15-0.01-0.22-0.03v-0.51c0.03,0,0.07,0.01,0.11,0.01
			c0.04,0,0.08,0.01,0.11,0.01c0.09,0,0.17-0.01,0.23-0.04c0.06-0.02,0.11-0.06,0.14-0.12c0.03-0.05,0.06-0.12,0.07-0.2
			s0.02-0.18,0.02-0.29v-4.35h0.66V64.4z M122.23,59.11v-0.63h0.66v0.63H122.23z"/>
		<path class="st0" d="M126.87,62.82c0,0.19-0.04,0.35-0.11,0.5c-0.07,0.15-0.18,0.27-0.31,0.37c-0.14,0.1-0.3,0.17-0.5,0.23
			c-0.2,0.05-0.43,0.08-0.68,0.08c-0.23,0-0.44-0.02-0.62-0.05c-0.18-0.04-0.35-0.09-0.49-0.17c-0.14-0.08-0.26-0.18-0.35-0.31
			c-0.09-0.13-0.16-0.28-0.21-0.47l0.58-0.11c0.06,0.21,0.17,0.37,0.35,0.47c0.18,0.1,0.42,0.15,0.73,0.15
			c0.14,0,0.27-0.01,0.39-0.03c0.12-0.02,0.22-0.05,0.31-0.1c0.09-0.05,0.15-0.11,0.2-0.19c0.05-0.08,0.07-0.18,0.07-0.29
			c0-0.12-0.03-0.22-0.08-0.29c-0.06-0.08-0.13-0.14-0.23-0.19c-0.1-0.05-0.22-0.1-0.36-0.13c-0.14-0.04-0.3-0.08-0.47-0.13
			c-0.16-0.04-0.32-0.09-0.47-0.14c-0.16-0.05-0.3-0.12-0.42-0.2c-0.13-0.08-0.23-0.19-0.31-0.31s-0.12-0.28-0.12-0.47
			c0-0.36,0.13-0.64,0.39-0.83c0.26-0.19,0.63-0.28,1.13-0.28c0.44,0,0.78,0.08,1.04,0.23c0.26,0.15,0.42,0.4,0.49,0.74l-0.59,0.07
			c-0.02-0.1-0.06-0.19-0.12-0.26c-0.06-0.07-0.13-0.13-0.21-0.17c-0.08-0.04-0.18-0.07-0.28-0.09c-0.1-0.02-0.21-0.03-0.32-0.03
			c-0.3,0-0.52,0.05-0.66,0.14c-0.14,0.09-0.21,0.23-0.21,0.41c0,0.11,0.03,0.2,0.08,0.27c0.05,0.07,0.13,0.13,0.22,0.18
			c0.09,0.05,0.21,0.09,0.34,0.12c0.13,0.04,0.28,0.07,0.44,0.11c0.1,0.03,0.21,0.06,0.32,0.09c0.11,0.03,0.22,0.07,0.32,0.11
			c0.1,0.04,0.2,0.09,0.29,0.15c0.09,0.06,0.17,0.13,0.24,0.21c0.07,0.08,0.12,0.17,0.16,0.28
			C126.85,62.55,126.87,62.68,126.87,62.82z"/>
		<path class="st0" d="M128.15,62.07c0,0.21,0.02,0.4,0.06,0.57c0.04,0.17,0.11,0.32,0.2,0.45c0.09,0.13,0.2,0.22,0.34,0.29
			c0.14,0.07,0.31,0.1,0.5,0.1c0.29,0,0.51-0.06,0.69-0.17c0.17-0.11,0.29-0.26,0.35-0.44l0.58,0.16c-0.04,0.11-0.1,0.22-0.17,0.33
			c-0.07,0.11-0.17,0.21-0.3,0.3c-0.12,0.09-0.28,0.16-0.47,0.22c-0.19,0.06-0.41,0.09-0.68,0.09c-0.59,0-1.03-0.17-1.34-0.52
			c-0.31-0.35-0.46-0.87-0.46-1.56c0-0.37,0.05-0.69,0.14-0.94c0.09-0.26,0.22-0.47,0.38-0.63c0.16-0.16,0.35-0.28,0.56-0.35
			c0.21-0.07,0.44-0.11,0.69-0.11c0.33,0,0.61,0.05,0.83,0.16c0.22,0.11,0.4,0.26,0.54,0.44c0.14,0.19,0.23,0.41,0.29,0.67
			s0.09,0.53,0.09,0.83v0.09H128.15z M130.3,61.57c-0.04-0.42-0.14-0.72-0.32-0.91s-0.43-0.29-0.76-0.29
			c-0.11,0-0.23,0.02-0.35,0.05c-0.12,0.04-0.23,0.1-0.34,0.19c-0.1,0.09-0.19,0.21-0.26,0.37c-0.07,0.15-0.11,0.35-0.12,0.59H130.3
			z"/>
		<path class="st0" d="M136.87,62.82c0,0.19-0.04,0.35-0.11,0.5c-0.07,0.15-0.18,0.27-0.31,0.37c-0.14,0.1-0.3,0.17-0.5,0.23
			c-0.2,0.05-0.43,0.08-0.68,0.08c-0.23,0-0.44-0.02-0.62-0.05c-0.18-0.04-0.35-0.09-0.49-0.17c-0.14-0.08-0.26-0.18-0.35-0.31
			c-0.09-0.13-0.16-0.28-0.21-0.47l0.58-0.11c0.06,0.21,0.17,0.37,0.35,0.47c0.18,0.1,0.42,0.15,0.73,0.15
			c0.14,0,0.27-0.01,0.39-0.03c0.12-0.02,0.22-0.05,0.31-0.1c0.09-0.05,0.15-0.11,0.2-0.19c0.05-0.08,0.07-0.18,0.07-0.29
			c0-0.12-0.03-0.22-0.08-0.29c-0.06-0.08-0.13-0.14-0.23-0.19c-0.1-0.05-0.22-0.1-0.36-0.13c-0.14-0.04-0.3-0.08-0.47-0.13
			c-0.16-0.04-0.32-0.09-0.47-0.14c-0.16-0.05-0.3-0.12-0.42-0.2c-0.13-0.08-0.23-0.19-0.31-0.31s-0.12-0.28-0.12-0.47
			c0-0.36,0.13-0.64,0.39-0.83c0.26-0.19,0.63-0.28,1.13-0.28c0.44,0,0.78,0.08,1.04,0.23c0.26,0.15,0.42,0.4,0.49,0.74l-0.59,0.07
			c-0.02-0.1-0.06-0.19-0.12-0.26c-0.06-0.07-0.13-0.13-0.21-0.17c-0.08-0.04-0.18-0.07-0.28-0.09c-0.1-0.02-0.21-0.03-0.32-0.03
			c-0.3,0-0.52,0.05-0.66,0.14c-0.14,0.09-0.21,0.23-0.21,0.41c0,0.11,0.03,0.2,0.08,0.27c0.05,0.07,0.13,0.13,0.22,0.18
			c0.09,0.05,0.21,0.09,0.34,0.12c0.13,0.04,0.28,0.07,0.44,0.11c0.1,0.03,0.21,0.06,0.32,0.09c0.11,0.03,0.22,0.07,0.32,0.11
			c0.1,0.04,0.2,0.09,0.29,0.15c0.09,0.06,0.17,0.13,0.24,0.21c0.07,0.08,0.12,0.17,0.16,0.28
			C136.85,62.55,136.87,62.68,136.87,62.82z"/>
		<path class="st0" d="M139.17,63.88c-0.1,0.03-0.2,0.05-0.31,0.06c-0.1,0.02-0.22,0.02-0.36,0.02c-0.53,0-0.79-0.3-0.79-0.9v-2.64
			h-0.46v-0.48h0.48l0.19-0.89h0.44v0.89h0.73v0.48h-0.73v2.5c0,0.19,0.03,0.32,0.09,0.4c0.06,0.08,0.17,0.12,0.32,0.12
			c0.06,0,0.13,0,0.18-0.01c0.06-0.01,0.13-0.02,0.2-0.04V63.88z"/>
		<path class="st0" d="M140.74,63.99c-0.4,0-0.7-0.1-0.9-0.31c-0.2-0.21-0.3-0.5-0.3-0.86c0-0.26,0.05-0.48,0.15-0.64
			c0.1-0.17,0.23-0.3,0.39-0.39c0.16-0.1,0.34-0.16,0.55-0.2c0.21-0.04,0.41-0.06,0.63-0.06l0.89-0.01v-0.22
			c0-0.16-0.02-0.3-0.05-0.42c-0.03-0.11-0.09-0.21-0.16-0.28c-0.07-0.07-0.16-0.12-0.27-0.16c-0.11-0.03-0.23-0.05-0.38-0.05
			c-0.13,0-0.24,0.01-0.34,0.03c-0.1,0.02-0.19,0.05-0.27,0.1c-0.08,0.05-0.14,0.11-0.18,0.19c-0.05,0.08-0.08,0.18-0.09,0.31
			l-0.69-0.06c0.02-0.16,0.07-0.3,0.14-0.43c0.07-0.13,0.17-0.24,0.29-0.34c0.13-0.1,0.28-0.17,0.47-0.22
			c0.19-0.05,0.42-0.08,0.69-0.08c0.5,0,0.87,0.11,1.12,0.34s0.38,0.56,0.38,0.99v1.71c0,0.2,0.03,0.34,0.08,0.44
			c0.05,0.1,0.15,0.15,0.29,0.15c0.04,0,0.07,0,0.11-0.01c0.04,0,0.07-0.01,0.11-0.02v0.41c-0.08,0.02-0.17,0.03-0.25,0.04
			c-0.08,0.01-0.17,0.01-0.26,0.01c-0.12,0-0.23-0.02-0.32-0.05c-0.09-0.03-0.16-0.08-0.22-0.15c-0.06-0.07-0.1-0.15-0.13-0.25
			c-0.03-0.1-0.05-0.21-0.05-0.35h-0.02c-0.07,0.13-0.15,0.24-0.23,0.34c-0.08,0.1-0.18,0.19-0.29,0.26
			c-0.11,0.07-0.24,0.13-0.38,0.17C141.09,63.97,140.93,63.99,140.74,63.99z M140.89,63.49c0.21,0,0.39-0.04,0.55-0.12
			c0.16-0.08,0.29-0.18,0.39-0.29c0.1-0.12,0.18-0.25,0.23-0.39s0.08-0.28,0.08-0.41v-0.33l-0.72,0.01c-0.16,0-0.31,0.01-0.46,0.03
			c-0.15,0.02-0.27,0.06-0.38,0.12c-0.11,0.06-0.2,0.15-0.26,0.26c-0.06,0.11-0.1,0.25-0.1,0.43c0,0.21,0.06,0.38,0.17,0.5
			C140.51,63.43,140.68,63.49,140.89,63.49z"/>
		<path class="st0" d="M143.92,63.91v-3.04c0-0.08,0-0.17,0-0.25c0-0.09,0-0.17-0.01-0.25c0-0.08,0-0.16-0.01-0.23
			c0-0.07,0-0.13-0.01-0.19h0.62c0,0.06,0.01,0.12,0.01,0.19c0,0.07,0.01,0.15,0.01,0.22c0,0.08,0.01,0.15,0.01,0.22
			c0,0.07,0,0.13,0,0.18h0.01c0.05-0.15,0.1-0.28,0.15-0.39c0.05-0.11,0.11-0.2,0.18-0.27c0.07-0.07,0.16-0.13,0.25-0.16
			c0.1-0.04,0.22-0.05,0.36-0.05c0.05,0,0.1,0,0.15,0.01c0.05,0.01,0.09,0.02,0.11,0.02v0.6c-0.04-0.01-0.1-0.02-0.15-0.03
			c-0.06-0.01-0.12-0.01-0.2-0.01c-0.15,0-0.28,0.03-0.39,0.1c-0.11,0.07-0.19,0.16-0.26,0.28c-0.07,0.12-0.12,0.26-0.15,0.43
			c-0.03,0.17-0.05,0.35-0.05,0.55v2.06H143.92z"/>
		<path class="st0" d="M147.92,63.88c-0.1,0.03-0.2,0.05-0.31,0.06c-0.1,0.02-0.22,0.02-0.36,0.02c-0.53,0-0.79-0.3-0.79-0.9v-2.64
			h-0.46v-0.48h0.48l0.19-0.89h0.44v0.89h0.73v0.48h-0.73v2.5c0,0.19,0.03,0.32,0.09,0.4c0.06,0.08,0.17,0.12,0.32,0.12
			c0.06,0,0.13,0,0.18-0.01c0.06-0.01,0.13-0.02,0.2-0.04V63.88z"/>
		<path class="st0" d="M148.99,62.07c0,0.21,0.02,0.4,0.06,0.57c0.04,0.17,0.11,0.32,0.2,0.45c0.09,0.13,0.2,0.22,0.34,0.29
			c0.14,0.07,0.31,0.1,0.5,0.1c0.29,0,0.51-0.06,0.69-0.17c0.17-0.11,0.29-0.26,0.35-0.44l0.58,0.16c-0.04,0.11-0.1,0.22-0.17,0.33
			c-0.07,0.11-0.17,0.21-0.3,0.3c-0.12,0.09-0.28,0.16-0.47,0.22c-0.19,0.06-0.41,0.09-0.68,0.09c-0.59,0-1.03-0.17-1.34-0.52
			c-0.31-0.35-0.46-0.87-0.46-1.56c0-0.37,0.05-0.69,0.14-0.94c0.09-0.26,0.22-0.47,0.38-0.63c0.16-0.16,0.35-0.28,0.56-0.35
			c0.21-0.07,0.44-0.11,0.69-0.11c0.33,0,0.61,0.05,0.83,0.16c0.22,0.11,0.4,0.26,0.54,0.44c0.14,0.19,0.23,0.41,0.29,0.67
			s0.09,0.53,0.09,0.83v0.09H148.99z M151.13,61.57c-0.04-0.42-0.14-0.72-0.32-0.91s-0.43-0.29-0.76-0.29
			c-0.11,0-0.23,0.02-0.35,0.05c-0.12,0.04-0.23,0.1-0.34,0.19c-0.1,0.09-0.19,0.21-0.26,0.37c-0.07,0.15-0.11,0.35-0.12,0.59
			H151.13z"/>
		<path class="st0" d="M152.67,63.91v-3.04c0-0.08,0-0.17,0-0.25c0-0.09,0-0.17-0.01-0.25c0-0.08,0-0.16-0.01-0.23s0-0.13-0.01-0.19
			h0.62c0,0.06,0.01,0.12,0.01,0.19c0,0.07,0.01,0.15,0.01,0.22c0,0.08,0.01,0.15,0.01,0.22c0,0.07,0,0.13,0,0.18h0.01
			c0.05-0.15,0.1-0.28,0.15-0.39c0.05-0.11,0.11-0.2,0.18-0.27c0.07-0.07,0.16-0.13,0.25-0.16c0.1-0.04,0.22-0.05,0.36-0.05
			c0.05,0,0.1,0,0.15,0.01c0.05,0.01,0.09,0.02,0.11,0.02v0.6c-0.04-0.01-0.1-0.02-0.15-0.03c-0.06-0.01-0.12-0.01-0.2-0.01
			c-0.15,0-0.28,0.03-0.39,0.1c-0.11,0.07-0.19,0.16-0.26,0.28c-0.07,0.12-0.12,0.26-0.15,0.43c-0.03,0.17-0.05,0.35-0.05,0.55v2.06
			H152.67z"/>
		<path class="st0" d="M157.89,60.63c0.07-0.13,0.15-0.25,0.24-0.34c0.09-0.09,0.18-0.17,0.28-0.23c0.1-0.06,0.21-0.11,0.34-0.13
			c0.12-0.03,0.26-0.04,0.41-0.04c0.25,0,0.46,0.03,0.62,0.1c0.16,0.07,0.29,0.16,0.38,0.29c0.09,0.12,0.16,0.27,0.19,0.44
			c0.04,0.17,0.05,0.36,0.05,0.56v2.64h-0.66V61.4c0-0.17-0.01-0.32-0.03-0.44c-0.02-0.13-0.06-0.23-0.12-0.32
			c-0.06-0.08-0.14-0.15-0.25-0.19c-0.11-0.04-0.25-0.06-0.42-0.06c-0.16,0-0.3,0.03-0.42,0.08c-0.13,0.06-0.23,0.14-0.32,0.24
			s-0.16,0.23-0.21,0.37s-0.07,0.31-0.07,0.49v2.34h-0.66v-5.43h0.66v1.41c0,0.08,0,0.16,0,0.24c0,0.08-0.01,0.15-0.01,0.22
			c0,0.07-0.01,0.13-0.01,0.17c0,0.05,0,0.08-0.01,0.1H157.89z"/>
		<path class="st0" d="M161.91,62.07c0,0.21,0.02,0.4,0.06,0.57c0.04,0.17,0.11,0.32,0.2,0.45c0.09,0.13,0.2,0.22,0.34,0.29
			c0.14,0.07,0.31,0.1,0.5,0.1c0.29,0,0.51-0.06,0.69-0.17c0.17-0.11,0.29-0.26,0.35-0.44l0.58,0.16c-0.04,0.11-0.1,0.22-0.17,0.33
			c-0.07,0.11-0.17,0.21-0.3,0.3c-0.12,0.09-0.28,0.16-0.47,0.22c-0.19,0.06-0.41,0.09-0.68,0.09c-0.59,0-1.03-0.17-1.34-0.52
			c-0.31-0.35-0.46-0.87-0.46-1.56c0-0.37,0.05-0.69,0.14-0.94c0.09-0.26,0.22-0.47,0.38-0.63c0.16-0.16,0.35-0.28,0.56-0.35
			c0.21-0.07,0.44-0.11,0.69-0.11c0.33,0,0.61,0.05,0.83,0.16c0.22,0.11,0.4,0.26,0.54,0.44c0.14,0.19,0.23,0.41,0.29,0.67
			c0.06,0.26,0.09,0.53,0.09,0.83v0.09H161.91z M164.05,61.57c-0.04-0.42-0.14-0.72-0.32-0.91s-0.43-0.29-0.76-0.29
			c-0.11,0-0.23,0.02-0.35,0.05c-0.12,0.04-0.23,0.1-0.34,0.19c-0.1,0.09-0.19,0.21-0.26,0.37c-0.07,0.15-0.11,0.35-0.12,0.59
			H164.05z"/>
		<path class="st0" d="M165.59,63.91v-3.04c0-0.08,0-0.17,0-0.25c0-0.09,0-0.17-0.01-0.25c0-0.08,0-0.16-0.01-0.23
			c0-0.07,0-0.13-0.01-0.19h0.62c0,0.06,0.01,0.12,0.01,0.19c0,0.07,0.01,0.15,0.01,0.22c0,0.08,0.01,0.15,0.01,0.22
			c0,0.07,0,0.13,0,0.18h0.01c0.05-0.15,0.1-0.28,0.15-0.39c0.05-0.11,0.11-0.2,0.18-0.27c0.07-0.07,0.16-0.13,0.25-0.16
			c0.1-0.04,0.22-0.05,0.36-0.05c0.05,0,0.1,0,0.15,0.01c0.05,0.01,0.09,0.02,0.11,0.02v0.6c-0.04-0.01-0.1-0.02-0.15-0.03
			c-0.06-0.01-0.12-0.01-0.2-0.01c-0.15,0-0.28,0.03-0.39,0.1c-0.11,0.07-0.19,0.16-0.26,0.28c-0.07,0.12-0.12,0.26-0.15,0.43
			c-0.03,0.17-0.05,0.35-0.05,0.55v2.06H165.59z"/>
	</g>
</g>
</svg>
