<?xml version="1.0" encoding="UTF-8"?><svg xmlns="http://www.w3.org/2000/svg" xmlns:xlink="http://www.w3.org/1999/xlink" viewBox="0 0 530.12 92.43"><defs><style>.m{fill:#fff;}.n{fill:url(#l);}.o{fill:url(#f);}.p{fill:url(#g);}.q{fill:url(#i);}.r{fill:url(#h);}.s{fill:url(#d);}.t{fill:url(#e);}.u{fill:url(#j);}.v{fill:url(#k);}</style><linearGradient id="d" x1="64.03" y1="83.15" x2="59.62" y2="74.57" gradientTransform="matrix(1, 0, 0, 1, 0, 0)" gradientUnits="userSpaceOnUse"><stop offset="0" stop-color="#221f59"/><stop offset="1" stop-color="#414299"/></linearGradient><linearGradient id="e" x1="49.88" y1="11.31" x2="53.95" y2=".44" xlink:href="#d"/><linearGradient id="f" x1="47.48" y1="18.16" x2="50.86" y2="5.18" xlink:href="#d"/><linearGradient id="g" x1="46.96" y1="31.28" x2="48.92" y2="16.97" xlink:href="#d"/><linearGradient id="h" x1="43.6" y1="48.57" x2="45.83" y2="26.47" xlink:href="#d"/><linearGradient id="i" x1="36.44" y1="66.6" x2="48.16" y2="30.23" xlink:href="#d"/><linearGradient id="j" x1="39.35" y1="76.29" x2="41.32" y2="57.63" xlink:href="#d"/><linearGradient id="k" x1="45.36" y1="84.95" x2="43.83" y2="71.59" xlink:href="#d"/><linearGradient id="l" x1="15.68" y1="73.33" x2="26.9" y2="61.83" xlink:href="#d"/></defs><g id="a"/><g id="b"><g id="c"><g><g><path class="m" d="M125.99,60.81c-2.37-1.07-4.23-2.54-5.57-4.43-1.35-1.89-2.04-4.07-2.09-6.55h6.32c.22,2.13,1.1,3.92,2.64,5.38,1.54,1.46,3.79,2.18,6.75,2.18s5.05-.7,6.68-2.12c1.63-1.41,2.44-3.22,2.44-5.44,0-1.74-.48-3.15-1.44-4.23-.96-1.09-2.15-1.91-3.58-2.48-1.44-.57-3.37-1.17-5.8-1.83-3-.78-5.4-1.57-7.2-2.35-1.8-.78-3.35-2.01-4.63-3.68-1.28-1.67-1.92-3.92-1.92-6.75,0-2.48,.63-4.67,1.89-6.58,1.26-1.91,3.03-3.39,5.31-4.43s4.9-1.57,7.85-1.57c4.26,0,7.74,1.07,10.46,3.19,2.71,2.13,4.25,4.95,4.59,8.47h-6.52c-.22-1.74-1.13-3.27-2.74-4.6-1.61-1.32-3.74-1.99-6.39-1.99-2.48,0-4.5,.64-6.06,1.92-1.57,1.28-2.35,3.07-2.35,5.38,0,1.65,.47,3,1.4,4.04s2.09,1.84,3.45,2.38c1.37,.54,3.29,1.16,5.77,1.86,3,.83,5.41,1.64,7.23,2.44,1.83,.8,3.39,2.04,4.69,3.71,1.3,1.67,1.96,3.94,1.96,6.81,0,2.22-.59,4.3-1.76,6.26-1.17,1.96-2.91,3.54-5.22,4.76-2.3,1.22-5.02,1.83-8.15,1.83s-5.68-.53-8.05-1.6Z"/><path class="m" d="M157.89,34.35c1.48-2.76,3.53-4.9,6.16-6.42,2.63-1.52,5.64-2.28,9.03-2.28,4.39,0,8.01,1.06,10.85,3.19,2.84,2.13,4.73,5.08,5.64,8.86h-6.39c-.61-2.17-1.79-3.89-3.55-5.15-1.76-1.26-3.94-1.89-6.55-1.89-3.39,0-6.13,1.16-8.21,3.48-2.09,2.33-3.13,5.62-3.13,9.88s1.04,7.62,3.13,9.97c2.09,2.35,4.82,3.52,8.21,3.52,2.61,0,4.78-.61,6.52-1.82,1.74-1.22,2.93-2.96,3.58-5.22h6.39c-.96,3.65-2.87,6.57-5.74,8.77-2.87,2.19-6.45,3.29-10.75,3.29-3.39,0-6.4-.76-9.03-2.28-2.63-1.52-4.68-3.67-6.16-6.45-1.48-2.78-2.22-6.04-2.22-9.78s.74-6.92,2.22-9.68Z"/><path class="m" d="M197.46,34.35c1.48-2.76,3.51-4.9,6.09-6.42,2.58-1.52,5.46-2.28,8.63-2.28s5.84,.67,8.15,2.02c2.3,1.35,4.02,3.04,5.15,5.09v-6.52h6V61.95h-6v-6.65c-1.17,2.09-2.92,3.81-5.25,5.18-2.32,1.37-5.03,2.05-8.11,2.05s-6.04-.78-8.6-2.35c-2.57-1.57-4.59-3.76-6.06-6.58-1.48-2.82-2.22-6.04-2.22-9.65s.74-6.85,2.22-9.61Zm26.39,2.64c-1.09-2-2.55-3.53-4.4-4.6-1.85-1.06-3.88-1.6-6.09-1.6s-4.24,.52-6.06,1.56-3.28,2.57-4.36,4.56c-1.09,2-1.63,4.35-1.63,7.04s.54,5.12,1.63,7.14c1.08,2.02,2.54,3.56,4.36,4.63,1.83,1.07,3.85,1.6,6.06,1.6s4.25-.53,6.09-1.6c1.85-1.06,3.31-2.61,4.4-4.63,1.09-2.02,1.63-4.38,1.63-7.07s-.54-5.04-1.63-7.04Z"/><path class="m" d="M269.48,29.53c2.7,2.63,4.04,6.42,4.04,11.37v21.05h-5.86v-20.2c0-3.56-.89-6.29-2.67-8.18-1.78-1.89-4.22-2.83-7.3-2.83s-5.62,.98-7.46,2.93c-1.85,1.96-2.77,4.8-2.77,8.54v19.75h-5.93V26.24h5.93v5.08c1.17-1.83,2.77-3.24,4.79-4.24,2.02-1,4.25-1.5,6.68-1.5,4.35,0,7.86,1.31,10.56,3.94Z"/><path class="m" d="M283.23,34.35c1.48-2.76,3.51-4.9,6.09-6.42,2.59-1.52,5.49-2.28,8.7-2.28,2.78,0,5.36,.64,7.75,1.92,2.39,1.28,4.22,2.96,5.48,5.05V13.72h6V61.95h-6v-6.71c-1.17,2.13-2.91,3.88-5.22,5.25-2.3,1.37-5,2.05-8.08,2.05s-6.05-.78-8.64-2.35c-2.58-1.57-4.62-3.76-6.09-6.58-1.48-2.82-2.22-6.04-2.22-9.65s.74-6.85,2.22-9.61Zm26.4,2.64c-1.09-2-2.55-3.53-4.4-4.6-1.85-1.06-3.88-1.6-6.09-1.6s-4.24,.52-6.06,1.56c-1.82,1.04-3.28,2.57-4.37,4.56-1.09,2-1.63,4.35-1.63,7.04s.54,5.12,1.63,7.14c1.09,2.02,2.54,3.56,4.37,4.63,1.83,1.07,3.85,1.6,6.06,1.6s4.25-.53,6.09-1.6c1.85-1.06,3.31-2.61,4.4-4.63,1.09-2.02,1.63-4.38,1.63-7.07s-.54-5.04-1.63-7.04Z"/><path class="m" d="M327.48,19.26c-.78-.78-1.17-1.74-1.17-2.87s.39-2.09,1.17-2.87c.78-.78,1.74-1.17,2.87-1.17s2.01,.39,2.77,1.17c.76,.78,1.14,1.74,1.14,2.87s-.38,2.09-1.14,2.87c-.76,.78-1.68,1.17-2.77,1.17s-2.09-.39-2.87-1.17Zm5.74,6.97V61.95h-5.93V26.24h5.93Z"/><path class="m" d="M343.32,34.35c1.48-2.76,3.53-4.9,6.16-6.42,2.63-1.52,5.64-2.28,9.03-2.28,4.39,0,8.01,1.06,10.85,3.19,2.85,2.13,4.73,5.08,5.64,8.86h-6.39c-.61-2.17-1.79-3.89-3.55-5.15-1.76-1.26-3.94-1.89-6.55-1.89-3.39,0-6.13,1.16-8.21,3.48-2.09,2.33-3.13,5.62-3.13,9.88s1.04,7.62,3.13,9.97c2.09,2.35,4.82,3.52,8.21,3.52,2.61,0,4.78-.61,6.52-1.82,1.74-1.22,2.93-2.96,3.58-5.22h6.39c-.96,3.65-2.87,6.57-5.74,8.77-2.87,2.19-6.45,3.29-10.75,3.29-3.39,0-6.4-.76-9.03-2.28-2.63-1.52-4.68-3.67-6.16-6.45-1.48-2.78-2.22-6.04-2.22-9.78s.74-6.92,2.22-9.68Z"/><path class="m" d="M410.84,16.52v4.82h-12.38V61.95h-5.93V21.35h-12.45v-4.82h30.76Z"/><path class="m" d="M450.54,46.31h-28.55c.22,3.52,1.42,6.27,3.62,8.24,2.19,1.98,4.86,2.96,7.98,2.96,2.56,0,4.7-.6,6.42-1.79,1.71-1.19,2.92-2.79,3.62-4.79h6.39c-.96,3.43-2.87,6.23-5.74,8.38-2.87,2.15-6.43,3.22-10.69,3.22-3.39,0-6.42-.76-9.09-2.28-2.67-1.52-4.77-3.68-6.29-6.49-1.52-2.8-2.28-6.05-2.28-9.74s.74-6.93,2.22-9.71c1.48-2.78,3.55-4.92,6.22-6.42,2.67-1.5,5.75-2.25,9.22-2.25s6.39,.74,9,2.22c2.61,1.48,4.61,3.51,6.03,6.09,1.41,2.58,2.12,5.51,2.12,8.77,0,1.13-.07,2.32-.2,3.58Zm-7.43-10.66c-1-1.63-2.36-2.87-4.07-3.71-1.72-.85-3.62-1.27-5.7-1.27-3,0-5.55,.96-7.66,2.87-2.11,1.91-3.31,4.56-3.62,7.95h22.55c0-2.26-.5-4.2-1.5-5.83Z"/><path class="m" d="M458.55,34.35c1.48-2.76,3.53-4.9,6.16-6.42,2.63-1.52,5.64-2.28,9.03-2.28,4.39,0,8.01,1.06,10.85,3.19,2.85,2.13,4.73,5.08,5.64,8.86h-6.39c-.61-2.17-1.79-3.89-3.55-5.15-1.76-1.26-3.94-1.89-6.55-1.89-3.39,0-6.13,1.16-8.21,3.48-2.09,2.33-3.13,5.62-3.13,9.88s1.04,7.62,3.13,9.97c2.09,2.35,4.82,3.52,8.21,3.52,2.61,0,4.78-.61,6.52-1.82,1.74-1.22,2.93-2.96,3.58-5.22h6.39c-.96,3.65-2.87,6.57-5.74,8.77-2.87,2.19-6.45,3.29-10.75,3.29-3.39,0-6.4-.76-9.03-2.28-2.63-1.52-4.68-3.67-6.16-6.45-1.48-2.78-2.22-6.04-2.22-9.78s.74-6.92,2.22-9.68Z"/><path class="m" d="M523.14,27.31c2.17,1.15,3.88,2.88,5.12,5.18,1.24,2.31,1.86,5.11,1.86,8.41v21.05h-5.87v-20.2c0-3.56-.89-6.29-2.67-8.18-1.78-1.89-4.22-2.83-7.3-2.83s-5.62,.98-7.46,2.93c-1.85,1.96-2.77,4.8-2.77,8.54v19.75h-5.93V13.72h5.93V31.32c1.18-1.83,2.79-3.24,4.86-4.24,2.06-1,4.38-1.5,6.94-1.5,2.69,0,5.13,.58,7.3,1.73Z"/></g><g><g><path class="s" d="M87.57,43.79c0,.2,0,.4,0,.6-.03,2.71-.32,5.36-.82,7.94-.62,3.17-1.6,6.22-2.87,9.11-.11,.27-.23,.53-.35,.79-.34,.72-.68,1.43-1.05,2.13-.46,.85-.94,1.69-1.45,2.5-3.77,6.08-8.99,11.17-15.18,14.77-1.72,1.01-3.52,1.91-5.39,2.68-5.13,2.11-10.76,3.27-16.66,3.27-3.03,0-5.99-.31-8.86-.9-4.66-.96-9.06-2.65-13.05-4.97-8.51-4.92-15.19-12.62-18.84-21.86C1.18,55.13,.11,50.01,0,44.65c0-.29,0-.57,0-.86,0-3.97,.53-7.82,1.52-11.48,.17-.64,.36-1.28,.56-1.91,.85-2.67,1.95-5.23,3.28-7.65,.18-.34,.37-.67,.57-1.01,1.28-2.21,2.76-4.3,4.4-6.23,.91-1.08,1.88-2.12,2.89-3.11,.75-.73,1.53-1.44,2.34-2.11,2.04-1.73,4.24-3.27,6.59-4.6C26.66,3.14,31.66,1.36,36.98,.53c2.21-.34,4.49-.53,6.81-.53,9.39,0,18.1,2.96,25.22,7.98,3.31,2.34,6.29,5.12,8.84,8.27,.66,.8,1.28,1.64,1.87,2.49,1.35,1.92,2.55,3.96,3.57,6.1,.07,.12,.12,.26,.18,.39,2.64,5.63,4.12,11.92,4.12,18.55Z"/><path class="t" d="M77.84,16.26c-3.67,1.52-9.52,1.5-12.48,1.6-10.82,0-21.85-.67-32.12-4.2-3.4-1.24-9.96-4.05-11.08-7.95C26.66,3.14,31.66,1.36,36.98,.53c2.21-.34,4.49-.53,6.81-.53,9.39,0,18.1,2.96,25.22,7.98,3.31,2.34,6.29,5.12,8.84,8.27Z"/><path class="o" d="M83.46,25.24c-.63,.36-1.31,.68-1.97,.96-1.52,.63-3.21,1.19-4.81,1.76-7.57,2.57-14.27,6.84-21.34,10.71-17.64,9.43-27.83,3.64-38.04-11.93-2.07-3.31-5.5-7.17-6.95-11.22,.91-1.08,1.88-2.12,2.89-3.11,.75-.73,1.53-1.44,2.34-2.11,2.04-1.73,4.24-3.27,6.59-4.6C26.66,3.14,31.66,1.36,36.98,.53c3.85,3.49,7.76,8.67,21.94,8.19,3.44-.09,6.79-.63,10.08-.73,3.31,2.34,6.29,5.12,8.84,8.27,.66,.8,1.28,1.64,1.87,2.49,1.35,1.92,2.55,3.96,3.57,6.1,.07,.12,.12,.26,.18,.39Z"/><path class="p" d="M87.57,43.79c0,.2,0,.4,0,.6-.03,2.71-.32,5.36-.82,7.94-.62,3.17-1.6,6.22-2.87,9.11-.56,.23-1.14,.42-1.76,.57-.2,.06-.41,.11-.62,.15-3.68,.87-8.02,.82-12.03,.77-2.02-.05-4.03-.14-6.03-.33-2.14-.19-4.27-.48-6.38-.87-.98-.18-1.93-.39-2.9-.63-4.68-1.13-9.19-2.92-13.37-5.32-12.7-7.36-22.44-19.9-33.27-30.31-.83-.9-1.57-1.8-2.14-2.71,.18-.34,.37-.67,.57-1.01,1.28-2.21,2.76-4.3,4.4-6.23,.91-1.08,1.88-2.12,2.89-3.11,.75-.73,1.53-1.44,2.34-2.11,2.03,.7,4.15,1.98,6.1,3.18,4.79,2.96,9.85,5.61,15.2,7.28,9.49,3.11,18.66,1.87,28.14-.5,4.79-1.06,9.99-2.46,14.69-1.51,1.35,1.92,2.55,3.96,3.57,6.1,.07,.12,.12,.26,.18,.39,2.64,5.63,4.12,11.92,4.12,18.55Z"/><path class="r" d="M87.57,43.79c0,.2,0,.4,0,.6-.03,2.71-.32,5.36-.82,7.94-4.16,4.05-10.54,6.26-16.13,7.41-4.47,.96-9,1.62-13.56,1.99-1.15,.1-2.3,.16-3.45,.22-4.46,.22-8.93,.16-13.39-.17-8.54-.6-17.2-2.72-24.01-7.88-1.05-.79-2.06-1.66-3.02-2.59-.37-.36-.74-.74-1.1-1.11-4.51-4.69-8.2-10.44-10.2-16.6-.13-.43-.26-.85-.36-1.28,.17-.64,.36-1.28,.56-1.91,.85-2.67,1.95-5.23,3.28-7.65,.18-.34,.37-.67,.57-1.01,1.28-2.21,2.76-4.3,4.4-6.23,.91-1.08,1.88-2.12,2.89-3.11,.09,.07,.18,.15,.27,.24,2.44,2.3,4.4,5.28,6.8,7.77,6.62,6.71,14.54,13.14,23.68,15.65,16.94,4.06,20.13-10.89,30.38-13.58,3.3-.68,6.35,.34,8.91,2.35,.07,.12,.12,.26,.18,.39,2.64,5.63,4.12,11.92,4.12,18.55Z"/><path class="q" d="M87.57,44.4c-.03,2.71-.32,5.36-.82,7.94-.62,3.17-1.6,6.22-2.87,9.11-.11,.27-.23,.53-.35,.79-.34,.72-.68,1.43-1.05,2.13-.46,.85-.94,1.69-1.45,2.5-4.78,2.79-10.71,3.94-15.92,6.29-5.41,2.2-10.47,5.35-15.69,8.12-.81,.42-1.62,.84-2.44,1.24-2.9,1.44-5.87,2.69-9,3.52-1.04,.29-2.05,.5-3.03,.65-4.66-.96-9.06-2.65-13.05-4.97-8.51-4.92-15.19-12.62-18.84-21.86C1.18,55.13,.11,50.01,0,44.65c0-.29,0-.57,0-.86,0-3.97,.53-7.82,1.52-11.48,.17-.64,.36-1.28,.56-1.91,.85-2.67,1.95-5.23,3.28-7.65,.18-.34,.37-.67,.57-1.01,.79,.49,1.64,1.2,2.53,2.04,1.53,1.44,3.26,3.24,5.09,4.93,2.65,2.46,5.5,4.67,8.17,7.08,5.81,4.93,10.49,11.85,17.99,14.19,9.79,3.18,24.59-.03,34.67-2.28,3.11-.75,5.87-1.56,8.2-2.3,1.69-.5,3.5-1.1,4.98-1.01Z"/><path class="u" d="M83.52,62.22c-.34,.72-.68,1.43-1.05,2.13-.46,.85-.94,1.69-1.45,2.5-3.77,6.08-8.99,11.17-15.18,14.77-2.55,.28-5.12,.35-7.62,.5-1.72,.09-3.47,.16-5.21,.22-2.01,.08-4.02,.13-6.04,.16-4.97,.1-9.94,.07-14.76-.11-3.39-.16-6.9-.23-10.32-.69-8.51-4.92-15.19-12.62-18.84-21.86C1.18,55.13,.11,50.01,0,44.65c.15,.04,.31,.09,.47,.13,3.34,1.03,7.04,3.32,10.37,4.83,.41,.19,.82,.38,1.24,.58,.79,.36,1.58,.72,2.37,1.07,4.51,1.99,9.14,3.76,13.71,5.24,8.3,2.67,16.82,4.52,25.44,5.45,3.26,.35,6.54,.56,9.82,.65,4.22,.11,8.46-.02,12.7-.38,1.69-.1,3.97-.37,5.97-.21,.49,.05,.97,.11,1.41,.21Z"/><path class="v" d="M82.46,64.35c-.46,.85-.94,1.69-1.45,2.5-3.77,6.08-8.99,11.17-15.18,14.77-1.72,1.01-3.52,1.91-5.39,2.68-5.13,2.11-10.76,3.27-16.66,3.27-3.03,0-5.99-.31-8.86-.9-4.66-.96-9.06-2.65-13.05-4.97-8.51-4.92-15.19-12.62-18.84-21.86,.89,.28,1.73,.63,2.36,.88,7.33,3.33,14.96,6.36,22.93,8,2.84,.59,5.73,1.01,8.67,1.21,3.36,.24,6.76,.15,9.9-.37,2.95-.5,5.66-1.33,8.58-2.05,5.85-1.49,12-2.34,18.37-2.97,2.19-.14,5.91-.73,8.62-.2Z"/><path class="n" d="M60.44,84.3c-5.13,2.11-10.76,3.27-16.66,3.27-3.03,0-5.99-.31-8.86-.9-4.66-.96-9.06-2.65-13.05-4.97-8.51-4.92-15.19-12.62-18.84-21.86C1.18,55.13,.11,50.01,0,44.65c0-.29,0-.57,0-.86,0-3.97,.53-7.82,1.52-11.48,.17-.64,.36-1.28,.56-1.91,.9,1.37,1.67,2.85,2.15,3.63,3.29,5.75,6.59,11.61,10.22,17.23,.57,.88,1.15,1.76,1.74,2.63,3.59,5.33,7.53,10.38,12.12,14.83,1.64,1.6,3.37,3.12,5.19,4.56,4.77,3.63,10.23,6.12,15.89,7.97,1.19,.38,2.37,.75,3.57,1.07,0,0,.02,0,.03,0,1.53,.53,4.72,1.15,7.44,1.96Z"/></g><g><path class="m" d="M65.74,27.39v7.05c-7.59,1.1-13.13,15.09-13.13,22.01,0,.46,0,1.12,0,1.66v.74h-8.28v-1.53c0-3.84,1.08-9.47,2.76-14.35,1.98-5.82,4.53-9.95,7.18-11.62l.68-.44-.68-.45c-6.22-3.94-9.94-10.46-9.94-17.43v-1.45h8.28v.84c0,.49,0,1.05,0,1.46,0,7.05,5.64,12.84,13.13,13.51Z"/><path class="m" d="M33.3,47.62l-.68,.44,.69,.44c2.64,1.67,5.18,5.8,7.17,11.62,1.68,4.88,2.76,10.52,2.76,14.35v1.54h-8.28v-.75c0-.54,0-1.19,0-1.66,0-6.92-5.54-20.91-13.13-22.01v-7.04c7.49-.68,13.13-6.48,13.13-13.52,0-.41,0-.97,0-1.46v-.84h8.28v1.45c0,6.98-3.72,13.5-9.94,17.44Z"/></g></g><g><path class="m" d="M133.44,79.91c0,1.28-.19,2.42-.58,3.4s-.92,1.8-1.59,2.46c-.67,.66-1.46,1.16-2.38,1.5-.92,.34-1.9,.51-2.96,.51h-5.76v-15.41h5.1c1.19,0,2.28,.15,3.29,.44,1,.3,1.87,.75,2.59,1.37,.72,.62,1.29,1.4,1.69,2.35,.4,.95,.61,2.08,.61,3.39Zm-2.1,0c0-1.04-.15-1.93-.45-2.67-.3-.74-.72-1.35-1.26-1.82s-1.19-.82-1.94-1.04c-.75-.22-1.57-.33-2.47-.33h-2.96v12.06h3.43c.81,0,1.56-.13,2.25-.39,.69-.26,1.29-.65,1.79-1.17,.5-.52,.9-1.16,1.18-1.94,.28-.77,.43-1.67,.43-2.69Z"/><path class="m" d="M136,73.43v-1.88h1.97v1.88h-1.97Zm0,14.35v-11.83h1.97v11.83h-1.97Z"/><path class="m" d="M148.51,87.78v-7.5c0-.58-.04-1.06-.13-1.44-.08-.39-.22-.7-.41-.94-.19-.24-.44-.4-.75-.5-.31-.1-.69-.15-1.15-.15s-.89,.08-1.26,.25c-.38,.16-.7,.4-.96,.71-.27,.31-.47,.69-.62,1.15-.15,.46-.22,.98-.22,1.57v6.86h-1.97v-9.31c0-.25,0-.51,0-.78,0-.27,0-.53-.02-.78,0-.24-.02-.45-.02-.63s-.01-.29-.02-.34h1.86s.01,.13,.02,.3c0,.16,.02,.34,.03,.55,.01,.21,.02,.42,.03,.63s.01,.4,.01,.54h.03c.19-.34,.4-.65,.62-.93s.49-.51,.79-.71,.64-.34,1.03-.45c.39-.11,.83-.16,1.34-.16,.66,0,1.22,.08,1.69,.24s.86,.41,1.17,.74,.53,.77,.67,1.3c.14,.53,.21,1.16,.21,1.89v7.89h-1.98Z"/><path class="m" d="M167.14,85.88c-.36,.76-.85,1.3-1.45,1.63-.6,.33-1.35,.49-2.24,.49-1.5,0-2.59-.5-3.3-1.51-.7-1.01-1.06-2.53-1.06-4.57,0-4.13,1.45-6.19,4.35-6.19,.9,0,1.64,.16,2.24,.49,.6,.33,1.08,.85,1.44,1.56h.02c0-.07,0-.19,0-.34,0-.16,0-.32-.01-.49,0-.17,0-.33,0-.49v-4.91h1.97v13.79c0,.28,0,.56,0,.82,0,.26,0,.5,.02,.72,0,.22,.01,.41,.02,.56s.01,.27,.02,.33h-1.88c-.01-.07-.03-.18-.04-.31s-.02-.29-.03-.47c-.01-.17-.02-.36-.03-.55,0-.19-.01-.38-.01-.57h-.04Zm-5.97-4.02c0,.82,.05,1.52,.15,2.1,.1,.58,.27,1.06,.49,1.44s.51,.65,.86,.83c.35,.17,.78,.26,1.28,.26s.98-.08,1.37-.25c.4-.17,.73-.44,1-.81,.27-.38,.47-.87,.61-1.47,.14-.6,.21-1.34,.21-2.22s-.07-1.55-.21-2.13c-.14-.58-.34-1.05-.61-1.41-.27-.36-.6-.61-.99-.77-.39-.16-.84-.23-1.35-.23-.48,0-.9,.08-1.25,.25s-.64,.44-.87,.81c-.23,.37-.41,.85-.52,1.45-.11,.59-.17,1.31-.17,2.16Z"/><path class="m" d="M172.12,73.43v-1.88h1.97v1.88h-1.97Zm0,14.35v-11.83h1.97v11.83h-1.97Z"/><path class="m" d="M181.59,92.43c-.68,0-1.28-.07-1.8-.21s-.97-.34-1.35-.6c-.37-.26-.67-.57-.91-.92-.23-.36-.4-.75-.5-1.19l1.98-.28c.13,.55,.42,.97,.87,1.26,.45,.3,1.04,.44,1.77,.44,.45,0,.85-.06,1.21-.19,.36-.12,.67-.32,.93-.6,.26-.27,.45-.63,.59-1.07,.14-.44,.21-.97,.21-1.6v-1.9h-.02c-.15,.3-.33,.58-.54,.86-.22,.27-.48,.52-.79,.73s-.67,.38-1.08,.51c-.41,.13-.87,.19-1.4,.19-.75,0-1.39-.13-1.93-.38-.54-.25-.97-.63-1.31-1.13-.34-.5-.59-1.13-.74-1.88-.16-.75-.24-1.61-.24-2.6s.08-1.8,.24-2.56c.16-.76,.41-1.4,.77-1.93,.35-.53,.81-.93,1.38-1.21,.56-.28,1.25-.42,2.06-.42s1.57,.19,2.18,.57c.62,.38,1.09,.93,1.43,1.64h.02c0-.18,0-.39,.02-.61,.01-.23,.02-.44,.03-.64,.01-.2,.02-.37,.04-.52,.01-.15,.03-.23,.04-.25h1.87c0,.07-.01,.18-.02,.33,0,.16-.01,.34-.02,.56,0,.22-.01,.46-.02,.73,0,.27,0,.54,0,.83v9.04c0,1.66-.41,2.9-1.22,3.74-.81,.83-2.06,1.25-3.74,1.25Zm3-10.56c0-.82-.09-1.53-.27-2.12-.18-.59-.41-1.07-.71-1.44-.29-.37-.62-.64-1-.82-.38-.17-.76-.26-1.15-.26-.5,0-.94,.09-1.3,.26-.36,.17-.66,.45-.9,.83-.24,.38-.41,.86-.52,1.44-.11,.59-.17,1.29-.17,2.11s.06,1.57,.17,2.15c.11,.58,.29,1.05,.52,1.41,.23,.36,.53,.61,.89,.77s.78,.23,1.28,.23c.39,0,.78-.08,1.15-.25s.71-.43,1.01-.8c.3-.36,.54-.84,.72-1.41,.18-.58,.27-1.27,.27-2.09Z"/><path class="m" d="M189.55,73.43v-1.88h1.97v1.88h-1.97Zm0,14.35v-11.83h1.97v11.83h-1.97Z"/><path class="m" d="M199.09,87.69c-.3,.08-.6,.14-.91,.19-.31,.05-.67,.07-1.08,.07-1.57,0-2.36-.89-2.36-2.68v-7.9h-1.37v-1.43h1.44l.58-2.65h1.31v2.65h2.19v1.43h-2.19v7.47c0,.57,.09,.97,.28,1.2,.19,.23,.51,.34,.97,.34,.19,0,.37-.01,.55-.04,.18-.03,.37-.07,.59-.11v1.45Z"/><path class="m" d="M203.78,88c-1.19,0-2.08-.31-2.68-.94-.6-.63-.9-1.49-.9-2.58,0-.78,.15-1.42,.44-1.92,.3-.5,.68-.89,1.16-1.18,.48-.28,1.02-.48,1.64-.59,.61-.11,1.24-.17,1.87-.19l2.66-.04v-.65c0-.49-.05-.9-.15-1.25-.1-.34-.26-.62-.47-.83-.21-.21-.48-.37-.79-.47-.32-.1-.69-.15-1.12-.15-.38,0-.72,.03-1.03,.08-.31,.05-.57,.15-.8,.3-.23,.14-.41,.34-.55,.58-.14,.24-.23,.55-.27,.92l-2.06-.19c.07-.47,.21-.9,.42-1.29,.2-.39,.49-.73,.87-1.01s.85-.5,1.41-.66c.56-.16,1.25-.24,2.05-.24,1.49,0,2.61,.34,3.36,1.02,.75,.68,1.13,1.67,1.13,2.96v5.1c0,.58,.08,1.02,.23,1.32,.15,.3,.44,.44,.87,.44,.11,0,.22,0,.33-.02,.11-.01,.22-.03,.32-.05v1.22c-.25,.06-.49,.1-.74,.13-.24,.03-.5,.04-.78,.04-.37,0-.69-.05-.96-.15-.27-.1-.48-.25-.65-.45-.17-.2-.3-.45-.38-.74-.09-.3-.14-.64-.16-1.03h-.07c-.21,.38-.44,.72-.69,1.03-.25,.31-.55,.57-.88,.78-.34,.22-.72,.38-1.14,.5-.43,.12-.92,.17-1.47,.17Zm.45-1.48c.63,0,1.18-.11,1.65-.34,.47-.23,.86-.52,1.17-.88,.31-.36,.54-.75,.69-1.17s.23-.83,.23-1.21v-.97l-2.15,.04c-.48,0-.94,.04-1.37,.1s-.81,.18-1.14,.37c-.33,.18-.59,.44-.78,.77-.19,.33-.29,.76-.29,1.29,0,.64,.17,1.14,.52,1.49,.35,.35,.84,.52,1.48,.52Z"/><path class="m" d="M213.22,87.78v-16.23h1.97v16.23h-1.97Z"/><path class="m" d="M219.71,82.28c0,.62,.06,1.19,.19,1.71,.13,.52,.32,.97,.59,1.34,.27,.38,.61,.67,1.02,.87s.92,.31,1.5,.31c.85,0,1.54-.17,2.05-.51,.51-.34,.86-.78,1.04-1.3l1.73,.49c-.12,.33-.3,.66-.52,.99-.22,.33-.52,.63-.89,.9-.37,.27-.84,.49-1.39,.66-.56,.17-1.23,.26-2.02,.26-1.75,0-3.08-.52-4-1.56-.92-1.04-1.37-2.59-1.37-4.65,0-1.11,.14-2.05,.42-2.82,.28-.77,.66-1.39,1.14-1.88s1.04-.83,1.68-1.04c.64-.22,1.33-.32,2.06-.32,.99,0,1.82,.16,2.49,.48,.67,.32,1.2,.76,1.61,1.33,.4,.57,.69,1.23,.86,2,.17,.77,.26,1.59,.26,2.48v.26h-8.44Zm6.41-1.51c-.11-1.25-.43-2.16-.95-2.73s-1.28-.86-2.26-.86c-.33,0-.67,.05-1.03,.16-.36,.11-.69,.29-1,.56-.31,.27-.57,.64-.78,1.1-.21,.46-.33,1.05-.36,1.77h6.39Z"/><path class="m" d="M236.92,87.78v-9.08c0-.25,0-.5,0-.76,0-.26,0-.51-.02-.75s-.01-.47-.02-.68-.01-.4-.02-.57h1.86c0,.17,.02,.36,.03,.57,.01,.22,.02,.44,.03,.66,.01,.23,.02,.44,.02,.65,0,.21,0,.38,0,.53h.04c.14-.45,.29-.84,.44-1.18s.34-.61,.55-.82c.21-.21,.46-.38,.75-.48,.29-.11,.64-.16,1.06-.16,.16,0,.31,.01,.46,.04,.15,.03,.26,.05,.34,.07v1.8c-.13-.04-.28-.06-.46-.08s-.37-.03-.59-.03c-.45,0-.84,.1-1.15,.31-.32,.2-.58,.49-.78,.85-.2,.36-.35,.79-.44,1.29-.1,.5-.14,1.04-.14,1.64v6.17h-1.97Z"/><path class="m" d="M245.84,82.28c0,.62,.06,1.19,.19,1.71,.13,.52,.32,.97,.59,1.34,.27,.38,.61,.67,1.02,.87s.92,.31,1.5,.31c.85,0,1.54-.17,2.05-.51,.51-.34,.86-.78,1.04-1.3l1.73,.49c-.12,.33-.3,.66-.52,.99-.22,.33-.52,.63-.89,.9-.37,.27-.84,.49-1.39,.66-.56,.17-1.23,.26-2.02,.26-1.75,0-3.08-.52-4-1.56-.92-1.04-1.37-2.59-1.37-4.65,0-1.11,.14-2.05,.42-2.82,.28-.77,.66-1.39,1.14-1.88s1.04-.83,1.68-1.04c.64-.22,1.33-.32,2.06-.32,.99,0,1.82,.16,2.49,.48,.67,.32,1.2,.76,1.61,1.33,.4,.57,.69,1.23,.86,2,.17,.77,.26,1.59,.26,2.48v.26h-8.44Zm6.41-1.51c-.11-1.25-.43-2.16-.95-2.73s-1.28-.86-2.26-.86c-.33,0-.67,.05-1.03,.16-.36,.11-.69,.29-1,.56-.31,.27-.57,.64-.78,1.1-.21,.46-.33,1.05-.36,1.77h6.39Z"/><path class="m" d="M258.75,89.24c0,.45-.04,.87-.11,1.26-.08,.39-.21,.72-.41,1.01-.2,.28-.46,.51-.8,.67-.34,.16-.77,.25-1.3,.25-.25,0-.49,0-.73-.02-.24-.01-.46-.04-.66-.08v-1.52c.09,.01,.21,.03,.34,.04,.13,.01,.24,.02,.34,.02,.28,0,.5-.04,.68-.11,.18-.07,.32-.19,.42-.34,.1-.16,.17-.36,.21-.6s.05-.53,.05-.87v-13h1.97v13.3Zm-1.97-15.81v-1.88h1.97v1.88h-1.97Z"/><path class="m" d="M270.65,84.51c0,.55-.11,1.05-.32,1.48-.22,.43-.53,.8-.93,1.09-.41,.3-.91,.52-1.5,.68-.59,.16-1.27,.24-2.04,.24-.69,0-1.3-.05-1.85-.16-.55-.11-1.03-.28-1.45-.51-.42-.23-.76-.54-1.04-.92-.28-.38-.49-.85-.62-1.41l1.74-.34c.17,.63,.51,1.1,1.04,1.39,.52,.3,1.25,.44,2.19,.44,.42,0,.81-.03,1.16-.09,.35-.06,.66-.16,.91-.3,.26-.14,.45-.33,.6-.57,.14-.24,.21-.53,.21-.88s-.08-.65-.25-.88c-.17-.23-.4-.42-.7-.57s-.66-.29-1.09-.4c-.43-.11-.9-.24-1.41-.38-.47-.12-.94-.26-1.41-.42-.47-.15-.89-.36-1.26-.61-.38-.25-.68-.56-.91-.94-.23-.37-.35-.84-.35-1.4,0-1.08,.38-1.9,1.15-2.47,.77-.56,1.89-.85,3.36-.85,1.31,0,2.34,.23,3.11,.69,.77,.46,1.26,1.2,1.46,2.21l-1.77,.22c-.07-.31-.19-.56-.36-.77-.17-.21-.39-.38-.63-.5s-.53-.22-.84-.27c-.31-.05-.63-.08-.97-.08-.89,0-1.55,.14-1.97,.4-.42,.27-.63,.68-.63,1.22,0,.32,.08,.59,.23,.79,.16,.21,.38,.38,.66,.52,.28,.14,.62,.27,1.01,.37,.39,.11,.83,.22,1.3,.33,.31,.08,.63,.17,.96,.26,.33,.09,.65,.2,.96,.33,.31,.13,.6,.28,.87,.45,.27,.17,.51,.38,.72,.62,.2,.24,.37,.52,.49,.84,.12,.32,.18,.69,.18,1.11Z"/><path class="m" d="M274.48,82.28c0,.62,.06,1.19,.19,1.71,.13,.52,.32,.97,.59,1.34,.27,.38,.61,.67,1.02,.87s.92,.31,1.5,.31c.85,0,1.54-.17,2.05-.51,.51-.34,.86-.78,1.04-1.3l1.73,.49c-.12,.33-.3,.66-.52,.99-.22,.33-.52,.63-.89,.9-.37,.27-.84,.49-1.39,.66-.56,.17-1.23,.26-2.02,.26-1.75,0-3.08-.52-4-1.56-.92-1.04-1.37-2.59-1.37-4.65,0-1.11,.14-2.05,.42-2.82,.28-.77,.66-1.39,1.14-1.88s1.04-.83,1.68-1.04c.64-.22,1.33-.32,2.06-.32,.99,0,1.82,.16,2.49,.48,.67,.32,1.2,.76,1.61,1.33,.4,.57,.69,1.23,.86,2s.26,1.59,.26,2.48v.26h-8.44Zm6.41-1.51c-.11-1.25-.43-2.16-.95-2.73-.52-.57-1.28-.86-2.26-.86-.33,0-.67,.05-1.03,.16-.36,.11-.69,.29-1,.56-.31,.27-.57,.64-.78,1.1-.21,.46-.33,1.05-.36,1.77h6.39Z"/><path class="m" d="M300.53,84.51c0,.55-.11,1.05-.32,1.48-.22,.43-.53,.8-.93,1.09-.41,.3-.91,.52-1.5,.68-.59,.16-1.27,.24-2.04,.24-.69,0-1.3-.05-1.85-.16-.55-.11-1.03-.28-1.45-.51-.42-.23-.76-.54-1.04-.92-.28-.38-.49-.85-.62-1.41l1.74-.34c.17,.63,.51,1.1,1.04,1.39,.52,.3,1.25,.44,2.19,.44,.42,0,.81-.03,1.16-.09,.35-.06,.66-.16,.91-.3,.26-.14,.45-.33,.6-.57,.14-.24,.21-.53,.21-.88s-.08-.65-.25-.88c-.17-.23-.4-.42-.7-.57s-.66-.29-1.09-.4c-.43-.11-.9-.24-1.41-.38-.47-.12-.94-.26-1.41-.42-.47-.15-.89-.36-1.26-.61-.38-.25-.68-.56-.91-.94s-.35-.84-.35-1.4c0-1.08,.38-1.9,1.15-2.47,.77-.56,1.89-.85,3.36-.85,1.31,0,2.34,.23,3.11,.69,.77,.46,1.26,1.2,1.46,2.21l-1.77,.22c-.07-.31-.19-.56-.36-.77-.17-.21-.39-.38-.63-.5s-.53-.22-.84-.27c-.31-.05-.63-.08-.97-.08-.89,0-1.55,.14-1.97,.4-.42,.27-.63,.68-.63,1.22,0,.32,.08,.59,.23,.79,.16,.21,.38,.38,.66,.52,.28,.14,.62,.27,1.01,.37,.39,.11,.83,.22,1.3,.33,.31,.08,.63,.17,.96,.26,.33,.09,.65,.2,.96,.33,.31,.13,.6,.28,.87,.45,.27,.17,.51,.38,.72,.62,.2,.24,.37,.52,.49,.84,.12,.32,.18,.69,.18,1.11Z"/><path class="m" d="M307.4,87.69c-.3,.08-.6,.14-.91,.19-.31,.05-.67,.07-1.08,.07-1.57,0-2.36-.89-2.36-2.68v-7.9h-1.37v-1.43h1.44l.58-2.65h1.31v2.65h2.19v1.43h-2.19v7.47c0,.57,.09,.97,.28,1.2,.19,.23,.51,.34,.97,.34,.19,0,.37-.01,.55-.04,.18-.03,.37-.07,.59-.11v1.45Z"/><path class="m" d="M312.09,88c-1.19,0-2.08-.31-2.68-.94-.6-.63-.9-1.49-.9-2.58,0-.78,.15-1.42,.44-1.92,.3-.5,.68-.89,1.16-1.18,.48-.28,1.02-.48,1.64-.59,.61-.11,1.24-.17,1.87-.19l2.66-.04v-.65c0-.49-.05-.9-.15-1.25-.1-.34-.26-.62-.47-.83-.21-.21-.48-.37-.79-.47-.32-.1-.69-.15-1.12-.15-.38,0-.72,.03-1.03,.08-.31,.05-.57,.15-.8,.3-.23,.14-.41,.34-.55,.58-.14,.24-.23,.55-.27,.92l-2.06-.19c.07-.47,.21-.9,.42-1.29,.2-.39,.49-.73,.87-1.01s.85-.5,1.41-.66c.56-.16,1.25-.24,2.05-.24,1.49,0,2.61,.34,3.36,1.02,.75,.68,1.13,1.67,1.13,2.96v5.1c0,.58,.08,1.02,.23,1.32,.15,.3,.44,.44,.87,.44,.11,0,.22,0,.33-.02,.11-.01,.22-.03,.32-.05v1.22c-.25,.06-.49,.1-.74,.13-.24,.03-.5,.04-.78,.04-.37,0-.69-.05-.96-.15-.27-.1-.48-.25-.65-.45-.17-.2-.3-.45-.38-.74-.09-.3-.14-.64-.16-1.03h-.07c-.21,.38-.44,.72-.69,1.03-.25,.31-.55,.57-.88,.78-.34,.22-.72,.38-1.14,.5-.43,.12-.92,.17-1.47,.17Zm.45-1.48c.63,0,1.18-.11,1.65-.34,.47-.23,.86-.52,1.17-.88,.31-.36,.54-.75,.69-1.17s.23-.83,.23-1.21v-.97l-2.15,.04c-.48,0-.94,.04-1.37,.1s-.81,.18-1.14,.37c-.33,.18-.59,.44-.78,.77-.19,.33-.29,.76-.29,1.29,0,.64,.17,1.14,.52,1.49,.35,.35,.84,.52,1.48,.52Z"/><path class="m" d="M321.57,87.78v-9.08c0-.25,0-.5,0-.76,0-.26,0-.51-.02-.75s-.01-.47-.02-.68c0-.21-.01-.4-.02-.57h1.86c0,.17,.02,.36,.03,.57,.01,.22,.02,.44,.03,.66,.01,.23,.02,.44,.02,.65,0,.21,0,.38,0,.53h.04c.14-.45,.29-.84,.44-1.18s.34-.61,.55-.82c.21-.21,.46-.38,.75-.48,.29-.11,.64-.16,1.06-.16,.16,0,.31,.01,.46,.04,.15,.03,.26,.05,.34,.07v1.8c-.13-.04-.28-.06-.46-.08s-.37-.03-.59-.03c-.45,0-.84,.1-1.15,.31-.32,.2-.58,.49-.78,.85-.2,.36-.35,.79-.44,1.29-.1,.5-.14,1.04-.14,1.64v6.17h-1.97Z"/><path class="m" d="M333.54,87.69c-.3,.08-.6,.14-.91,.19-.31,.05-.67,.07-1.08,.07-1.57,0-2.36-.89-2.36-2.68v-7.9h-1.37v-1.43h1.44l.58-2.65h1.31v2.65h2.19v1.43h-2.19v7.47c0,.57,.09,.97,.28,1.2,.19,.23,.51,.34,.97,.34,.19,0,.37-.01,.55-.04,.18-.03,.37-.07,.59-.11v1.45Z"/><path class="m" d="M336.72,82.28c0,.62,.06,1.19,.19,1.71,.13,.52,.32,.97,.59,1.34,.27,.38,.61,.67,1.02,.87s.92,.31,1.5,.31c.85,0,1.54-.17,2.05-.51,.51-.34,.86-.78,1.04-1.3l1.73,.49c-.12,.33-.3,.66-.52,.99-.22,.33-.52,.63-.89,.9-.37,.27-.84,.49-1.39,.66-.56,.17-1.23,.26-2.02,.26-1.75,0-3.08-.52-4-1.56-.92-1.04-1.37-2.59-1.37-4.65,0-1.11,.14-2.05,.42-2.82,.28-.77,.66-1.39,1.14-1.88s1.04-.83,1.68-1.04c.64-.22,1.33-.32,2.06-.32,.99,0,1.82,.16,2.49,.48,.67,.32,1.2,.76,1.61,1.33,.4,.57,.69,1.23,.86,2,.17,.77,.26,1.59,.26,2.48v.26h-8.44Zm6.41-1.51c-.11-1.25-.43-2.16-.95-2.73s-1.28-.86-2.26-.86c-.33,0-.67,.05-1.03,.16-.36,.11-.69,.29-1,.56-.31,.27-.57,.64-.78,1.1-.21,.46-.33,1.05-.36,1.77h6.39Z"/><path class="m" d="M347.71,87.78v-9.08c0-.25,0-.5,0-.76,0-.26,0-.51-.02-.75s-.01-.47-.02-.68-.01-.4-.02-.57h1.86c0,.17,.02,.36,.03,.57,.01,.22,.02,.44,.03,.66,.01,.23,.02,.44,.02,.65,0,.21,0,.38,0,.53h.04c.14-.45,.29-.84,.44-1.18s.34-.61,.55-.82c.21-.21,.46-.38,.75-.48,.29-.11,.64-.16,1.06-.16,.16,0,.31,.01,.46,.04,.15,.03,.26,.05,.34,.07v1.8c-.13-.04-.28-.06-.46-.08s-.37-.03-.59-.03c-.45,0-.84,.1-1.15,.31-.32,.2-.58,.49-.78,.85-.2,.36-.35,.79-.44,1.29-.1,.5-.14,1.04-.14,1.64v6.17h-1.97Z"/><path class="m" d="M363.31,77.97c.22-.4,.46-.74,.71-1.02s.54-.51,.84-.69,.64-.32,1.01-.4c.36-.08,.77-.13,1.22-.13,.76,0,1.38,.1,1.86,.31,.48,.2,.87,.49,1.15,.86,.28,.37,.47,.81,.58,1.32,.11,.51,.16,1.07,.16,1.68v7.89h-1.98v-7.5c0-.5-.03-.94-.09-1.32-.06-.38-.18-.69-.36-.95-.17-.25-.42-.44-.74-.57-.32-.13-.74-.19-1.25-.19-.47,0-.89,.08-1.26,.25s-.7,.4-.96,.71-.47,.68-.62,1.12-.22,.93-.22,1.48v6.98h-1.97v-16.23h1.97v4.22c0,.24,0,.48-.01,.72,0,.24-.02,.46-.03,.67-.01,.2-.02,.38-.03,.52,0,.14-.01,.24-.02,.29h.03Z"/><path class="m" d="M375.32,82.28c0,.62,.06,1.19,.19,1.71,.13,.52,.32,.97,.59,1.34,.27,.38,.61,.67,1.02,.87s.92,.31,1.5,.31c.85,0,1.54-.17,2.05-.51,.51-.34,.86-.78,1.04-1.3l1.73,.49c-.12,.33-.3,.66-.52,.99-.22,.33-.52,.63-.89,.9-.37,.27-.84,.49-1.39,.66-.56,.17-1.23,.26-2.02,.26-1.75,0-3.08-.52-4-1.56-.92-1.04-1.37-2.59-1.37-4.65,0-1.11,.14-2.05,.42-2.82,.28-.77,.66-1.39,1.14-1.88s1.04-.83,1.68-1.04c.64-.22,1.33-.32,2.06-.32,.99,0,1.82,.16,2.49,.48,.67,.32,1.2,.76,1.61,1.33,.4,.57,.69,1.23,.86,2,.17,.77,.26,1.59,.26,2.48v.26h-8.44Zm6.41-1.51c-.11-1.25-.43-2.16-.95-2.73s-1.28-.86-2.26-.86c-.33,0-.67,.05-1.03,.16-.36,.11-.69,.29-1,.56-.31,.27-.57,.64-.78,1.1-.21,.46-.33,1.05-.36,1.77h6.39Z"/><path class="m" d="M386.31,87.78v-9.08c0-.25,0-.5,0-.76,0-.26,0-.51-.02-.75s-.01-.47-.02-.68-.01-.4-.02-.57h1.86c0,.17,.02,.36,.03,.57,.01,.22,.02,.44,.03,.66,.01,.23,.02,.44,.02,.65,0,.21,0,.38,0,.53h.04c.14-.45,.29-.84,.44-1.18s.34-.61,.55-.82c.21-.21,.46-.38,.75-.48,.29-.11,.64-.16,1.06-.16,.16,0,.31,.01,.46,.04,.15,.03,.26,.05,.34,.07v1.8c-.13-.04-.28-.06-.46-.08s-.37-.03-.59-.03c-.45,0-.84,.1-1.15,.31-.32,.2-.58,.49-.78,.85-.2,.36-.35,.79-.44,1.29-.1,.5-.14,1.04-.14,1.64v6.17h-1.97Z"/></g></g></g></g></svg>